<mxfile host="Electron" agent="Mozilla/5.0 (Windows NT 10.0; Win64; x64) AppleWebKit/537.36 (KHTML, like Gecko) draw.io/26.1.1 Chrome/132.0.6834.210 Electron/34.3.3 Safari/537.36" version="26.1.1">
  <diagram name="Page-1" id="1PyeTTDGhX2SsNFHKLo8">
    <mxGraphModel dx="989" dy="582" grid="1" gridSize="10" guides="1" tooltips="1" connect="1" arrows="1" fold="1" page="1" pageScale="1" pageWidth="827" pageHeight="1169" math="0" shadow="0">
      <root>
        <mxCell id="0" />
        <mxCell id="1" parent="0" />
        <mxCell id="iyf6n7LOq6J_EW838Q4h-3" style="edgeStyle=orthogonalEdgeStyle;rounded=0;orthogonalLoop=1;jettySize=auto;html=1;exitX=0.5;exitY=1;exitDx=0;exitDy=0;" edge="1" parent="1" source="iyf6n7LOq6J_EW838Q4h-1" target="iyf6n7LOq6J_EW838Q4h-2">
          <mxGeometry relative="1" as="geometry" />
        </mxCell>
        <mxCell id="iyf6n7LOq6J_EW838Q4h-4" value="Producer" style="edgeLabel;html=1;align=center;verticalAlign=middle;resizable=0;points=[];" vertex="1" connectable="0" parent="iyf6n7LOq6J_EW838Q4h-3">
          <mxGeometry x="-0.4429" relative="1" as="geometry">
            <mxPoint as="offset" />
          </mxGeometry>
        </mxCell>
        <mxCell id="iyf6n7LOq6J_EW838Q4h-1" value="Main Controller" style="rounded=1;whiteSpace=wrap;html=1;" vertex="1" parent="1">
          <mxGeometry x="320" y="130" width="120" height="40" as="geometry" />
        </mxCell>
        <mxCell id="iyf6n7LOq6J_EW838Q4h-2" value="" style="shape=image;verticalLabelPosition=bottom;labelBackgroundColor=default;verticalAlign=top;aspect=fixed;imageAspect=0;editableCssRules=.*;image=data:image/svg+xml,PHN2ZyB4bWxucz0iaHR0cDovL3d3dy53My5vcmcvMjAwMC9zdmciIHdpZHRoPSI1MTEuNzMzNzAzNjEzMjgxMjUiIHZpZXdCb3g9IjAuMDA1MDE0NDE5NTU1NjY0MDYyNSAwLjIwMzYxMTM3MzkwMTM2NzIgNTExLjczMzcwMzYxMzI4MTI1IDIzMy40ODc0NDIwMTY2MDE1NiIgcHJlc2VydmVBc3BlY3RSYXRpbz0ieE1pZFlNaWQiIGhlaWdodD0iMjMzLjQ4NzQ0MjAxNjYwMTU2Ij48ZyBmaWxsPSIjMWExOTE5Ij48cGF0aCBkPSJtNDkuNzYzNDgxMyAyMC45Nzk1OTA1Yy0yLjU4MjU3Ni0yLjU5MjYwNTQtNi4xNjU1ODY4LTQuMTg5NzkwNy0xMC4xNTk4MDM4LTQuMTg5NzkwNy0zLjk4NDE4NzYgMC03LjUzOTYxNzUgMS41OTcxODUzLTEwLjA4OTU5NzkgNC4xODk3OTA3aC0uMDY1MTkxMmMtMi41NzUwNTM5IDIuNTc1MDU0LTQuMTcyMjM5MyA2LjE2ODA5NDItNC4xNzIyMzkzIDEwLjEzNzIzNzcgMCAzLjk5MTcwOTYgMS41OTcxODU0IDcuNTYyMTgzNiA0LjE3MjIzOTMgMTAuMTEyMTY0bC4wNjUxOTEyLjA3MDIwNmMyLjU0OTk4MDQgMi41NzAwMzkyIDYuMTA1NDEwMyA0LjE0NDY1ODMgMTAuMDg5NTk3OSA0LjE0NDY1ODMgMy45OTQyMTcgMCA3LjU3NzIyNzgtMS41NzQ2MTkxIDEwLjE1OTgwMzgtNC4xNDQ2NTgzbC4wMzAwODgyLS4wNzAyMDZjMi41ODUwODM0LTIuNTQ5OTgwNCA0LjE2MjIwOTktNi4xMjA0NTQ0IDQuMTYyMjA5OS0xMC4xMTIxNjQgMC0zLjk2OTE0MzUtMS41NzcxMjY1LTcuNTYyMTgzNy00LjE2MjIwOTktMTAuMTM3MjM3N3ptLTEwLjE1OTgwMzggMTk2LjEyNTMzNDVjMy45OTQyMTcgMCA3LjU3NzIyNzgtMS42MjcyNzQgMTAuMTU5ODAzOC00LjE3MjI0bC4wMzAwODgyLS4wNzUyMmMyLjU4NTA4MzQtMi41Mzk5NTEgNC4xNjIyMDk5LTYuMTMyOTkxIDQuMTYyMjA5OS0xMC4wODIwNzYgMC0zLjk5MTcxLTEuNTc3MTI2NS03LjU2NzE5OC00LjE2MjIwOTktMTAuMTU0Nzg5aC0uMDMwMDg4MmMtMi41ODI1NzYtMi42MTc2NzktNi4xNjU1ODY4LTQuMTk5ODItMTAuMTU5ODAzOC00LjE5OTgyLTMuOTg0MTg3NiAwLTcuNTM5NjE3NSAxLjU4MjE0MS0xMC4wODk1OTc5IDQuMTk5ODJoLS4wNjUxOTEyYy0yLjU3NTA1MzkgMi41ODc1OTEtNC4xNzIyMzkzIDYuMTYzMDc5LTQuMTcyMjM5MyAxMC4xNTQ3ODkgMCAzLjk0OTA4NSAxLjU5NzE4NTQgNy41NDIxMjUgNC4xNzIyMzkzIDEwLjA4MjA3NmwuMDY1MTkxMi4wNzUyMmMyLjU0OTk4MDQgMi41NDQ5NjYgNi4xMDU0MTAzIDQuMTcyMjQgMTAuMDg5NTk3OSA0LjE3MjI0em03OC4wNjE0OTM1LTQzLjQwOTg0M2MzLjU0NzkwOC0uOTMyNzM2IDYuNzU5ODMtMy4yMDk0MTUgOC43MjMwODktNi42NTQ1MjFsLjI2MzI3My0uNTAzOTc5YzEuNzQ1MTE5LTMuMjYyMDY5IDIuMDYzNTUzLTcuMDMzMTMxIDEuMTMwODE3LTEwLjM4MDQ1MS0uOTQwMjU4LTMuNTcyOTgxLTMuMjQyMDExLTYuNzQyMjc4LTYuNjc5NTk1LTguNzE1NTY3bC0uMjAzMDk2LS4xMzUzOTdjLTMuMzQ5ODI2LTEuODQwMzk5LTcuMTYxMDA2LTIuMjQxNTc2LTEwLjY2NjI4OS0xLjI4NjI3My0zLjU2Mjk1Mi44OTAxMTEtNi43NjQ4NDUgMy4yNjIwNjktOC43MTU1NjcgNi42NzcwODctMS45NzU3OTYzIDMuMzk0OTU5LTIuMzg3MDAyNiA3LjI5NjQwNC0xLjQ0MTczIDEwLjg4NjkzNy45NzUzNjIgMy41MzI4NjMgMy4yNTk1NjIgNi43MjQ3MjcgNi42NzcwODggOC43MjA1ODJoLjAyMDA1OGMzLjQyNTA0OCAxLjk2ODI3NCA3LjI5NjQwNCAyLjMyMTgxMSAxMC44OTE5NTIgMS4zOTE1ODJ6bS02My4zNjU4ODM5LTcxLjQyOTUzOWMtMy43NjEwMzMtMy43NTEwMDM1LTguOTUxMjU4Ni02LjEwMjkwMjgtMTQuNjk1NjA5Ni02LjEwMjkwMjgtNS43MzY4MjkgMC0xMC45MTIwMTA0IDIuMzUxODk5My0xNC42NjU1MjE0IDYuMTAyOTAyOC0zLjc0MDk3NDEgMy43NDU5ODktNi4wNDc3NDEgOC45MTM2NDgtNi4wNDc3NDEgMTQuNjU3OTk5czIuMzA2NzY2OSAxMC45MzQ1NzcgNi4wNDc3NDEgMTQuNzIzMTkxYzMuNzUzNTExIDMuNzI4NDM3IDguOTI4NjkyNCA2LjA1Nzc3IDE0LjY2NTUyMTQgNi4wNTc3NyA1Ljc0NDM1MSAwIDEwLjkzNDU3NjYtMi4zMjkzMzMgMTQuNjk1NjA5Ni02LjA1Nzc3IDMuNzUxMDAzNi0zLjc4ODYxNCA2LjA1Nzc3MDUtOC45Nzg4NCA2LjA1Nzc3MDUtMTQuNzIzMTkxcy0yLjMwNjc2NjktMTAuOTEyMDEtNi4wNTc3NzA1LTE0LjY1Nzk5OXptLTguMjY0MjQzMi0yNC40MTkxMzM1YzguMzM5NDYzOCAxLjM3NDAzMDcgMTUuODI2NDI2OSA1LjM2ODI0NzggMjEuNTUwNzE5MSAxMS4xMzI2NTc3aC4wNDI2MjVjLjkxMDE3LjkwNzY2MjYgMS43OTUyNjY0IDEuOTA4MDk3NCAyLjYyMDE4NjMgMi45MDYwMjQ4bDE0LjMwNDQ2MjItOC4yNzQyNzI2Yy0xLjkyMzE0MTUtNS44MTIwNDk3LTIuMDEzNDA2My0xMS44ODczNzE2LS40NjYzNjgxLTE3LjU4NjU5MDMgMi4wMzg0Nzk5LTcuNjI5ODgyMyA2Ljk4NTQ5Mi0xNC40NTk5MTgyIDE0LjQwMjI0OTEtMTguNzM5OTczOGwuMjQwNzA2MS0uMTUyOTQ4NmM3LjMzNjUyMTQtNC4xNDk2NzMxIDE1LjY3MzQ3ODQtNS4wMTQ3MTA3IDIzLjE5ODA1MTQtMi45NzYyMzA4IDcuNjIyMzYgMi4wNDM0OTQ2IDE0LjQ5NzUyOSA3LjAxMzA3MjkgMTguNzc3NTg0IDE0LjQxNzI5MzF2LjAyMjU2NjJjNC4yNTk5OTcgNy4zNjQxMDI3IDUuMTIyNTI3IDE1LjgxMzg5MDEgMy4wOTE1NjkgMjMuNDIxMjA2Mi0yLjAyODQ1IDcuNjI3Mzc0OS02Ljk5MzAxNCAxNC41MDUwNTA2LTE0LjQwMjI0OSAxOC43NjAwMzI2bC0xLjk1MzIzIDEuMTUzMzgzaC0uMTk4MDgxYy02Ljg1MjYwMiAzLjI2MjA3LTE0LjM4NzIwNCAzLjc3MzU3LTIxLjMwNzUwNSAxLjk1MDcyMy01LjY4MTY2Ny0xLjUwNDQxMy0xMC44OTE5NTE4LTQuNjc4NzI1MS0xNC45NzM5MjYzLTkuMTc5NDI4bC0xNC4yODQ0MDMzIDguMjUxNzA2YzEuNjQyMzE3OCA0LjM0Mjc0IDIuNTQ5OTgwNCA5LjAyMzk3MiAyLjU0OTk4MDQgMTMuOTcwOTg0IDAgNC45MjE5MzktLjkwNzY2MjYgOS42NzA4Ny0yLjU0OTk4MDQgMTQuMDM2MTc1bDE0LjI4NDQwMzMgOC4yMjkxNDFjNC4wODE5NzQ1LTQuNTcwOTA5IDkuMjkyMjU5My03LjY3MjUwOCAxNC45NzM5MjYzLTkuMTgxOTM2IDcuNjI0ODY3LTIuMDgzNjEyIDE2LjA3NDY1NS0xLjE5ODUxNSAyMy40NTg4MTYgMy4xMDY2MTRsLjQ3Mzg5LjIyMDY0N3YuMDIyNTY2YzcuMTMzNDI2IDQuMzI1MTg4IDExLjkyMjQ3NSAxMC45OTk3NjggMTMuOTI4MzU5IDE4LjUzOTM4NiAyLjAzMDk1OCA3LjU2MjE4MyAxLjE2ODQyOCAxNi4wMTY5ODUtMy4wOTE1NjkgMjMuMzk2MTMybC0uMjU4MjU3LjUxNDAwOC0uMDMwMDg5LS4wNDI2MjVjLTQuMjc3NTQ4IDcuMTEzMzY3LTExLjAyMjMzNCAxMS45MzI1MDQtMTguNDY2NjcyIDEzLjk3MDk4NC03LjYzNDg5NyAyLjAxMzQwNi0xNi4wODcxOTIgMS4xNTMzODMtMjMuNDYxMzIzNS0zLjA4OTA2MnYtLjA1NzY2OWMtNy40MTY3NTcxLTQuMjg3NTc4LTEyLjM2Mzc2OTItMTEuMTMyNjU4LTE0LjQwMjI0OTEtMTguNzQ3NDk2LTEuNTQ3MDM4Mi01LjY3NDE0NS0xLjQ1Njc3MzQtMTEuNzQ5NDY3LjQ2NjM2ODEtMTcuNTU5MDA5bC0xNC4zMDQ0NjIyLTguMjU0MjE0Yy0uODI0OTE5OS45OTc5MjctMS43MTAwMTYzIDEuOTUzMjMtMi42MjAxODYzIDIuODYwODkybC0uMDQyNjI1LjA0NTEzM2MtNS43MjQyOTIyIDUuNzQ0MzUxLTEzLjIxMTI1NTMgOS43MzYwNjEtMjEuNTUwNzE5MSAxMS4wNjQ5NTl2MTYuNTI4NDg2YzUuOTQyNDMyMSAxLjI0MTE0MSAxMS4yNjMwNDAyIDQuMjEyMzU3IDE1LjQzMDI2NDcgOC4zODIwODlsLjAyMjU2NjIuMDQyNjI1YzUuNTg2Mzg3NyA1LjU2MTMxNCA5LjA0NjUzODEgMTMuMzA5MDQyIDkuMDQ2NTM4MSAyMS44MjQwMjEgMCA4LjQ4OTkwNS0zLjQ2MDE1MDQgMTYuMTkyNTAxLTkuMDQ2NTM4MSAyMS43ODEzOTZsLS4wMjI1NjYyLjA4Nzc1N2MtNS42MjY1MDUzIDUuNTg2Mzg4LTEzLjM0NDE0NTEgOS4wNDY1MzgtMjEuODYxNjMxMSA5LjA0NjUzOC04LjQ3MjM1MzcgMC0xNi4yMTAwNTIyLTMuNDYwMTUtMjEuODI0MDIwOC05LjA0NjUzOGgtLjAyMjU2NjJ2LS4wODc3NTdjLTUuNTkxNDAyNC01LjU4ODg5NS05LjA1OTA3NDg1LTEzLjI5MTQ5MS05LjA1OTA3NDg1LTIxLjc4MTM5NiAwLTguNTE0OTc5IDMuNDY3NjcyNDUtMTYuMjYyNzA3IDkuMDU5MDc0ODUtMjEuODI0MDIxdi0uMDQyNjI1aC4wMjI1NjYyYzQuMTY0NzE3Mi00LjE2OTczMiA5LjQ5NTM1NDYtNy4xNDA5NDggMTUuNDE1MjIwNS04LjM4MjA4OXYtMTYuNTI4NDg2Yy04LjMzNjk1NjQtMS4zMjg4OTgtMTUuODExMzgyNy01LjMyMDYwOC0yMS41MjU2NDU1LTExLjA2NDk1OWwtLjA2MDE3NjUtLjA0NTEzM2MtNy4xMzU5MzMyOS03LjE2MTAwNi0xMS42MDQwNDA0OS0xNy4wMjk5NTctMTEuNjA0MDQwNDktMjcuOTY0NTM0IDAtMTAuOTEyMDEgNC40NjgxMDcyLTIwLjc4MDk2MDcgMTEuNjA0MDQwNDktMjcuOTQ0NDc0OGguMDYwMTc2NWM1LjcxNDI2MjgtNS43NjQ0MDk5IDEzLjE4ODY4OTEtOS43NTg2MjcgMjEuNTI1NjQ1NS0xMS4xMzI2NTc3di0xNi40NTgyODA0Yy01LjkxOTg2NTktMS4yODM3NjU5LTExLjI1MDUwMzMtNC4yNTQ5ODItMTUuNDE1MjIwNS04LjQwMjE0NzdoLS4wMjI1NjYydi0uMDQ1MTMyNGMtNS41OTE0MDI0LTUuNjExNDYxMy05LjA1OTA3NDg1LTEzLjMwNjUzNDgtOS4wNTkwNzQ4NS0yMS44MjQwMjA4IDAtOC40NzIzNTM3IDMuNDY3NjcyNDUtMTYuMjM1MTI1OCA5LjA1OTA3NDg1LTIxLjgyNDAyMDg1bC4wMjI1NjYyLS4wMjI1NjYyYzUuNjEzOTY4Ni01LjYwODk1Mzg4IDEzLjM1MTY2NzEtOS4wNjY1OTY4OCAyMS44MjQwMjA4LTkuMDY2NTk2ODggOC41MTc0ODYgMCAxNi4yMzUxMjU4IDMuNDU3NjQzIDIxLjg2MTYzMTEgOS4wNjY1OTY4OHYuMDIyNTY2MmguMDIyNTY2MmM1LjU4NjM4NzcgNS41ODg4OTUwNSA5LjA0NjUzODEgMTMuMzUxNjY3MTUgOS4wNDY1MzgxIDIxLjgyNDAyMDg1IDAgOC41MTc0ODYtMy40NjAxNTA0IDE2LjIxMjU1OTUtOS4wNDY1MzgxIDIxLjgyNDAyMDhsLS4wMjI1NjYyLjA0NTEzMjRjLTQuMTY3MjI0NSA0LjE0NzE2NTctOS40ODc4MzI2IDcuMTE4MzgxOC0xNS40MzAyNjQ3IDguNDAyMTQ3N3ptODAuMzUzMjE2MS0xMC45NzcyMDE3LS4xMjI4Ni0uMTgwNTI5NWMtMS45NzA3ODEtMy4zMjQ3NTMyLTUuMTIwMDItNS41NDEyNTUzLTguNjAwMjI5LTYuNDk2NTU3Ny0zLjU5NTU0OC0uOTU1MzAyNC03LjQ2NjkwNC0uNTU0MTI1NS0xMC45MTIwMSAxLjQyMTY3MDVoLjAyMDA1OGMtMy40Mzc1ODQgMS45NTA3MjI0LTUuNzM2ODI5IDUuMTQwMDc4NC02LjY5NzE0NiA4LjcxNTU2NzEtLjk0NTI3MjYgMy41NDc5MDc4LS41MzQwNjYzIDcuNDY5NDExNSAxLjQ0MTczIDEwLjg4NjkzNjlsLjA2NzY5OC4wODc3NTc0YzEuOTc4MzA0IDMuMzcyMzkyOSA1LjEzMDA0OSA1LjYzNDAyNzQgOC42NDc4NjkgNi41NDQxOTc0IDMuNTM1MzcxIDEuMDAwNDM0OCA3LjQ3NDQyNi41NzY2OTE3IDEwLjg2OTM4NS0xLjM5OTEwNDNsLjE4MzAzNy0uMDg3NzU3NGMzLjM0MjMwNS0xLjk5NTg1NDggNS41Njg4MzYtNS4xNDUwOTMxIDYuNDk2NTU4LTguNjA1MjQzNS45NDc3OC0zLjU3MDQ3NC41NjkxNjktNy40NzE5MTg5LTEuMzk0MDktMTAuODg2OTM2OXoiLz48cGF0aCBkPSJtMTg5Ljg1OTQ1MyA3MS43MDMzODg5aDE1Ljk2MTgyNHY0OC43MjI5MjkxbDIzLjAxNzUyMi0yNS40NTk2ODYzaDE5LjEzODY0M2wtMjcuNzg5MDE5IDI5LjQ5NjUyODMgMjcuOTA0MzU4IDM3LjM4OTY4M2gtMTguMjc2MTEzbC0yMy45OTUzOTEtMzMuMzk3OTczdjMzLjM5Nzk3M2gtMTUuOTYxODI0em03Ni42NTk4ODIgNTYuOTk0Njk0MWMwIDguMjk2ODM5IDUuOTY3NTA2IDIwLjM1OTcyNSAyMC4zNDQ2ODEgMjAuMzU5NzI1IDguODk2MDk3IDAgMTQuNzUwNzcyLTQuNjM2MSAxNy43ODcxNzktMTAuNzExNDIyIDEuNTg5NjYzLTIuOTQ4NjUgMi4zMjE4MTEtNi4xMDAzOTUgMi41Njc1MzItOS4zODAwMTYuMTEwMzIzLTMuMTc0MzEyLS40ODg5MzQtNi40NzM5OTEtMS44Mzc4OTItOS40MDUwOS0yLjc5ODIwOC02LjMxODUzNS05LjAwODkyNy0xMS43OTcxMDctMTguNjM0NjY0LTExLjc5NzEwNy0xMi45MDc4NjYgMC0yMC4yMjY4MzYgMTAuNDY1NzAxLTIwLjIyNjgzNiAyMC44MjM1ODZ6bTU2LjUzMzM0MSAzMy4xNTQ3NmgtMTUuOTY5MzQ2di05LjYyMzIzYy00LjI0OTk2OCA3Ljc4MjgzMS0xMy4xNDg1NzIgMTEuNjg5MjktMjIuNTMzNjAzIDExLjY4OTI5LTIxLjQ0NTQxIDAtMzMuOTg5NzA5LTE2LjcwMTQ5NC0zMy45ODk3MDktMzUuNTc0MzU3IDAtMjEuMDY5MzA3IDE1LjIyNzE2OS0zNS40NDE0Njc3IDMzLjk4OTcwOS0zNS40NDE0Njc3IDEyLjE4MzI0IDAgMTkuNjEyNTM0IDYuNDU2NDM5OSAyMi41MzM2MDMgMTEuODIyMTgwN3YtOS43NTg2MjczaDE1Ljk2OTM0NnptMTguMDczMDE3LTU0LjU3NzYwNGgtOC4yNzE3NjV2LTEyLjMwODYwNzNoOC4yNzE3NjV2LTMuNzY4NTU1MWMwLTE5Ljg3MzI5ODMgMTUuMTExODMxLTIxLjA3MTgxNDIgMjYuNTcwNDQ0LTIxLjIwNDcwNHYxMi4yODYwNDExYy00LjAyOTMyIDAtMTAuNjAxMDk4IDAtMTAuNjAxMDk4IDkuNDAyNTgyNXYzLjI4NDYzNTVoMTAuNjAxMDk4djEyLjMwODYwNzNoLTEwLjYwMTA5OHY1NC41Nzc2MDRoLTE1Ljk2OTM0NnptMzcuNDI0Nzg2LTM1LjU3MTg1MDFoMTUuOTU2ODA5djQ4LjcyMjkyOTFsMjMuMDIyNTM3LTI1LjQ1OTY4NjNoMTkuMTM4NjQzbC0yNy43ODkwMTkgMjkuNDk2NTI4MyAyNy44OTkzNDMgMzcuMzg5NjgzaC0xOC4yNzYxMTNsLTIzLjk5NTM5MS0zMy4zOTc5NzN2MzMuMzk3OTczaC0xNS45NTY4MDl6bTc2LjY1OTg4MiA1Ni45OTQ2OTQxYzAgOC4yOTY4MzkgNS45NjQ5OTggMjAuMzU5NzI1IDIwLjM0NDY4MSAyMC4zNTk3MjUgOC44ODM1NiAwIDE0LjczODIzNC00LjYzNjEgMTcuNzc5NjU2LTEwLjcxMTQyMiAxLjU5NDY3OC0yLjk0ODY1IDIuMzI5MzM0LTYuMTAwMzk1IDIuNTcwMDQtOS4zODAwMTYuMTEwMzIzLTMuMTc0MzEyLS40ODg5MzUtNi40NzM5OTEtMS44NDAzOTktOS40MDUwOS0yLjc5MzE5NC02LjMxODUzNS05LjAwMzkxMy0xMS43OTcxMDctMTguNjI3MTQzLTExLjc5NzEwNy0xMi45MTAzNzMgMC0yMC4yMjY4MzUgMTAuNDY1NzAxLTIwLjIyNjgzNSAyMC44MjM1ODZ6bTU2LjUyODMyNiAzMy4xNTQ3NmgtMTUuOTY0MzMydi05LjYyMzIzYy00LjI2MjUwNCA3Ljc4MjgzMS0xMy4xNTM1ODYgMTEuNjg5MjktMjIuNTMzNjAyIDExLjY4OTI5LTIxLjQ0NTQxIDAtMzMuOTc5NjgtMTYuNzAxNDk0LTMzLjk3OTY4LTM1LjU3NDM1NyAwLTIxLjA2OTMwNyAxNS4yMjIxNTUtMzUuNDQxNDY3NyAzMy45Nzk2OC0zNS40NDE0Njc3IDEyLjE3NTcxNyAwIDE5LjYxMjUzMyA2LjQ1NjQzOTkgMjIuNTMzNjAyIDExLjgyMjE4MDd2LTkuNzU4NjI3M2gxNS45NjQzMzJ6Ii8+PC9nPjwvc3ZnPg==;" vertex="1" parent="1">
          <mxGeometry x="336.05" y="200" width="87.9" height="40" as="geometry" />
        </mxCell>
        <mxCell id="iyf6n7LOq6J_EW838Q4h-6" style="edgeStyle=orthogonalEdgeStyle;rounded=0;orthogonalLoop=1;jettySize=auto;html=1;exitX=1;exitY=0.5;exitDx=0;exitDy=0;" edge="1" parent="1" source="iyf6n7LOq6J_EW838Q4h-5" target="iyf6n7LOq6J_EW838Q4h-2">
          <mxGeometry relative="1" as="geometry" />
        </mxCell>
        <mxCell id="iyf6n7LOq6J_EW838Q4h-7" value="&lt;u&gt;Consumer&lt;/u&gt;&lt;div&gt;groupID: h2DatabaseGroup&lt;/div&gt;" style="edgeLabel;html=1;align=center;verticalAlign=middle;resizable=0;points=[];" vertex="1" connectable="0" parent="iyf6n7LOq6J_EW838Q4h-6">
          <mxGeometry x="-0.1642" relative="1" as="geometry">
            <mxPoint x="18" as="offset" />
          </mxGeometry>
        </mxCell>
        <mxCell id="iyf6n7LOq6J_EW838Q4h-5" value="H2 Database" style="rounded=1;whiteSpace=wrap;html=1;" vertex="1" parent="1">
          <mxGeometry x="40" y="200" width="120" height="40" as="geometry" />
        </mxCell>
        <mxCell id="iyf6n7LOq6J_EW838Q4h-9" style="edgeStyle=orthogonalEdgeStyle;rounded=0;orthogonalLoop=1;jettySize=auto;html=1;exitX=1;exitY=0.5;exitDx=0;exitDy=0;entryX=0.75;entryY=1;entryDx=0;entryDy=0;dashed=1;shape=link;" edge="1" parent="1" source="iyf6n7LOq6J_EW838Q4h-8" target="iyf6n7LOq6J_EW838Q4h-5">
          <mxGeometry relative="1" as="geometry" />
        </mxCell>
        <mxCell id="iyf6n7LOq6J_EW838Q4h-8" value="" style="shape=image;verticalLabelPosition=bottom;labelBackgroundColor=default;verticalAlign=top;aspect=fixed;imageAspect=0;image=data:image/png,iVBORw0KGgoAAAANSUhEUgAAAQAAAAEACAYAAABccqhmAAAACXBIWXMAAAdhAAAHYQGVw7i2AAAAGXRFWHRTb2Z0d2FyZQB3d3cuaW5rc2NhcGUub3Jnm+48GgAAIABJREFUeJzt3XmcXFWZ//HPc6u3quosnU5IL0kgQhggYVECSMgAIiD74oLDIsugqIiAguIPZthUQIkiOAISZFRWRRiWCAiIshpWlxAIBMjaS5bOQrqreqv7/P7ohHSSTrq66ladW1XP+/Xi9QrdXfd+ezlPnXvuuecIpsAtr64mtb2PTITUWIHRvsdowatFqQWtVagVqAAEGLn+hRVAfP2/O4Du9f9eDaDQLdAG0obQpvhtns9KhZUQWeahC9qRhVDXkc/v1gRLXAcw6ZhfGSO2m+Dt7nv+FFGZCOyw/r/RTqPBCmAhsEhFPvB85ir+nARr5sLk7kFeaxyzAhAyo1kxLEn3J0Gm4smeqro7sDNQ5jrbEPUC74rIHHz9J+irUSpeXsmYda6DmY2sADgWY3GDUn6A5+l0VfYG9gXKXefKkRTwDsIL4suLAq+3Uz/XdahSZgUg75pjcXSa73mHonq8wC6uEzm2AOEp9eXpKiqfXM2ota4DlRIrAHkwjOZdfORYX/wjBJlO3wCc2VKXIi94yhO9pB7pYty7rgMVOysAOVJFyw6CHi/CF4ADXOcpUG+hen8E7l1H4zuuwxQjKwABqqJ5+wicosJJwF6u8xSZN0T19z5yb5KGxa7DFAsrAFnTSJzmT+HJOaqcSOGN1hcaH3hGVW5LUvcQSI/rQIXMCkCGKlkyyfPKzhbVM4GxrvOUqGUi/E58uc3uJmTGCsAQRWmeLqKXgByN/fzC5EVUf5SgYRaIug5TKOwPOC1aHqX1BBG9mL779Ca8/olyc4Ku38LETtdhws4KwDYtr47Tc66KdwFog+s0ZkiWisqNHcgt9rzC1lkBGND8yhjxMxCuAupcpzFZWSmqMzrwb4LxSddhwsYKwCbmVsSoORORK+wdv+gsF9WfdtB9o10abGQFAAD1YjSficiVwHjXaUxOLRaVyzuouxPEdx3GtZIvAFFa9xNJ/Qzkk66zmLx63Ve+1UnD866DuFSyBSDK0nF43jWinEYJ/xyMzvI1cn4ndQtcJ3GhBP/wF1TFvMpLUb4DVLlOY0IhgcqPE7RfB5O6XIfJp5IqAFGaDhCRmcCurrOYMJL3POWcdur/4jpJvpREAahh1Yhur/NqVc4DPNd5TKgpwswqv/I7q6j90HWYXCv6AhCj6ThEbgYaXWcxBWUp6n09Qd0s10FyqYgLwJJo3Itcp8r5rpOYwqXCnUm/7FzYrt11llwoygIQo2UfEb1L+xbTNCZbC1T1tCSNL7kOErQiux7WSJymSxB9wRq/CdBEEXk2RtOVoBHXYYJUND2AGIsbkLLfAdNdZzHFS+Gvnpad3MF2ra6zBKEoCkDfM/r8Hqh3ncWUhOWeyn8Uw+3Cgr8EiNF8jgjPYI3f5M92vuiTcZoucR0kWwXcA1hQFfMqbkHlTNdJTOlS4Z6kz1egIeE6SyYKsgBEWdIoEpmFrbxrwuENtPfYBBOaXQcZqoIrAHFad1fxZwETXGcxZiNpRv1jEjT+3XWSoSioMYA4TYep+C9gjd+EjjYg8lyMlqNcJxmKgikAMZrOVpE/AsNdZzFmK6oRfThGy9ddB0lXQRSAmNd0FSK3U7y75priUYbozTFaLncdJB0hHwNQiXot14tykeskxgyVil6f9BsuCfM+BSEuACoxr/VGVL/pOokxGRN+mfDrzw3r+oMhLQAaiXmtM1E9y3USY7LVN1eg/gyQXtdZNhfCAqCRuNd8j6qc5DqJMUERkd91+HWngqRcZ+kvZIOAKjGv5ZfW+E2xUdUvxryWO0BD1eZCFEYl5rX8AuVs10mMyQnl9JjX/HPXMfoLTQGIeq3XoRTM/VNjMqJybtxrvsF1jA1CUQBiXtNVovpd1zmMyQdVLozR8t+uc0AIBgFjNJ29fpKPMaVF5dwE9be4jOC0AMRpPkKFR4EylzmMcaRHlGM6aHjSVQBnBaCa1il+34M9I1xlMMY1hXWe+v/ewbh/uji/kwKwfv2+2dhOvMYANKn6n0wybmm+T+xgELA1jpT9EWv8xmzQKOI9BEui+T5x3gtAzPNvxlbyMWZze0e9yMx8nzSvBSBK84Uop+fznMYUClFOjdHyjbyeM18nitI0TUT+AlTk65zGFKAeX/l0Jw3P5+NkeSkAcZbXqaReB23Ix/mMKXCtaO/e+VhkNA+XABpR6b3fGr8xaatTKbs7Hw8O5fwEMVovxbbrMmZIBA6O05Lz6fE5vQSI0TwV4SVsLT9jMtGr6k1PUvdyrk6Qwx5Aa1yEu7HGb0ymykT0LlhenasT5KwAxDy9ybboNiZbulPM652Rq6Pn5BIgRtNxiDyci2MbU5LUOzZB3aygDxt4ARhF2/BO6ZoLjAv62MaULmmu1MrdVjNqbZBHDfwSoNPr+jHW+I0JmDZ0eV0/CPqogfYAqmg+0BP+GvRxjTEA+KoclKThhaAOGGAPYH6lJ9yKNX5jcsVDuB3mVwZ3wIDEvPhlwK5BHc8YsyWBf4tRHdgEoUDeraM0jReReUAsiOMZY7Yp6Su7dtKwKNsDBdIDEJGfYo3fmHyJisc1QRwo6x7A+sd8XwjiWMaYtKkqB2Y7IJhlD0A9EbkRa/zG5JuIcGO2Twxm9eI4zWcAU7M5hjEmY5+I03paNgfI4p17fmVM4vOxxT2NcWlxQjt2hkldmbw44x5AlPhXscZvjGsTYlT/Z6YvzrAHsKAqJpXvAY2ZntgYE5iWhKZ2hPHJob4wox5AnKrzsMZvTFjUR4mck8kLM+gBtMZj4n8AbJfJCY0xOdGaUHaEhsRQXjTkHkCc1HlY4zcmbOqi8LWhvmiIPQAtj0nLB9jjvsaE0dKE1n8MpCfdFwypBxCn9RSs8RsTVuPitHxhKC8YUgFQ0QuHlscYk08qfBc07Z592gUgTtNh2KaexoTdntW0HpzuF6ddAFTkooziGGPyyhdNu62m1VWoZMmkiETeSffrjTFOaUojk7oY+/5gX5hWD8Dzyr6MNX5jCoVEvFRa04PTaNRaFpOWxUB9lqGMMfnTmtD6CYPdEhy0BxCl5Xis8RtTaOpiNB812BeVDfYFInwlmDzGDG7YcGH0aI/hIzyqqoSKSmhfpySTyupVPstafdcRC4fwZZRt7tC1zUuAKpq394QPyMM24qb0TNq5jP2mlTPtgAp22a2MHXcqY/SYbf+pJZPK4oUp3prby2uvdvPayz28MruH7m7NU+qCklJNbZ9kfNPWvmCbBSBG86UIPww+Vzg0NEbYfc++P7rVq5T57/Yy/51e17GGLBKBvT5RzoTtI1RWCS3NKV5/tYf2deFrFHvvU87nT4py4heqGD8hEsgxP1yrPPWnLh5+MMmjD3VZMehHVL7TQf1WNxfddgGQ5r9ThJN/jjymkksuG8bUfcuRzX4C89/p5YYZHdz16wSplJt86Rox0uOi78Y54+zYFu+cXV3K47O6+P4V65j3ltuiVlkpnHRKlPO/FWe3KYNedWZlxXKfu36d4Bc3JWhpDvkvMD9eTWjDvlv75FYLQCVLd46I905uMrlRWSn8zy9HcMrp0UG/dvZL3Zz8udUsXxbOa8499irn/odrGDd+2++iqRRc+V/r+OmP2vOUbKNIBM7+aozv/dcwxtbl9yoymVRuvzXBjOvaWbkinL/DfElpZKetzQnY6m8lQuSLuYuUf5EI3POHmrQaP8Anp1Xw2NO1DBsevukPe368nKefrx208UPf9/39a4dxwcXxPCTb6N8PquCl10dzw/+MyHvjB4hGhW9+K84/3h7DaWdGt+jplZIyej+/tc9t/TcjOqSnisLu25dUc8TRQ9tSbdfJZdz4ixE5SpSZaFS494Ea4vGh/UV//9rh7Ld/RY5SbVRRIVx7/XAef6aWKXuU5/x8g6kZ5fHLO0by0GOjqB1dmmPZKnLS1j434F/RMJp3SQlv5y5Sfo2q9Xjr/e0yejdXhen7rOQfb6T9iHVOXXBxnGt+PDyj1774fDeHH9QWcKKNtt8hwt331/Dxvd03/IEsWZzi5M+t5u+vh+N3mU8pTU3qYvx7m398wJLoo8flPlL+HP/Zqoy78iJw8mnpXTbkw2mnZ74D2wH/XsFOk3IzCLfblDKeeq42tI0fYPyECE8+W8shhwW2uW7B8IgcO/DHB+CLHJHbOPl14MHZdX0/9elw/MGMHuNlPYo+/aDgLwOmTa/gz8+PpnFcMLf1cikWE37/UA2HHRGO32m+iPCZgT4+QAFojQtMy3WgfEpnsGzbrw/HtWO23wfAuIAb6YTtI9z7QA3DRxTOKFs0Ktz3YA1T9w1vbyUHDoLmLbqPW/xlx0gdChRVeRzqgNnmqoeFowBUV2ffyKqHBdtQb7plxKCz98KoqqpvMLWuvvCyZ6gqhhy8+Qe3/O694ur+m9zZfc/ygu5KNzRGuOPOmpK5RSiebnEZsGUBUKwAmLR85qjCbfwbHHRIBWd+OfOB1YKiHLn5hzYpAFW0TgR2yFceU9h23yO303rz5ZofDy+JOQIKk6Is3WRV702+6wj+AfmNZApZJFIcfefhI4QLL8rvTEl3IpsM8G9SANQrrtF/k1urVxXPHPuvnhcvyMHMofI83eRNftPvWK0AmPTN/lt3oMeb/04vN/2kgxOOWsXkHZdTN7KVERUt7Ni4jH33XMGZp6zhzv9N5GRRkHhc+NJZxT8WoMomBeCji7hRtA3vpGtK/iOZQvXk410kEkoslvmlgO/Dg/cnue4H7bw9d+DHlltbfFpbfObO6eX++5JUVHzIGWdHufh71YHMjdjg1C9FueHH+X9qMs/2hOXVsF079OsBdNH1SSD8U7lMaKxY7nPbL4a0Ge0mnn+2m/0/sZIzTl6z1cY/kO5uZeYtCfbZYwWPPdqZ8fk3t+vkMvbYq+gnB5VV43+0PsBHBUBhqps8ppD94Mp1vP7q0B6uUYVrr27nqE+38ea/Mn8w58O1yhdPXM3tt2ZehDb3qUNz/8SkazpQARBP9nATxxSyZFL5wvGreGV2eg25q0v52tlr+MGV6/ADuJT3fbjo/LU8+0ww4xEHHlT4cxsG43vsvuHfG3sAqlYATEaWtfocftBKfvSD9m2uQ/jaKz0cdmAbd/06Gej5e3vh7NPXkExmvxbgfvsX/SUAohsLwPpBwPmVwCRHeUwR6OmBqy9fxw0z2vmPU6N8fP0ipcmk8u68FE881skLz3WjOVqvs6U5xcxbEpz/7ezu59eM8qgd7dG2snhucQ5gF5hbAZO7ywBixCeTxh4Bxgxm3Yd9A3Qu3Po/HVkXAOhbrrxtZbC3OEOmPE7tv3XAHA9AsOt/U/gWLUzx7rzsV0BuHFf8E4LA3wPWjwH4nr+b2zDGBOPZv2T/zh2vLv4CoB6TYX0BEJWJbuMYE4ympuz3Aghi3YWwE/ra/IZSt4O7KMYEJ4h9HCIlMB1O1d8BrACYIpNKZX+bYc2aUtha7KMewPJqYLTjNMYEoq4++7fvNauL+hbgBttBc8yrpq8rYEwxaGiwApAmqYbtPd+6/6aITJue/Uy+eW8X3g7RmfCRiR749a6DGBOEMdt5WW9H1tris2J5SfQAAL/OE6h1HcOYIJzwuaqsV/id88/S2TZM8Go931MrAKbgicDXvpH9NOCXXizqKcCb8D1qPbE7AKYIHPqZSnbZLfvHWWY9HNwCI2En6GgP9awHYAqa58GVPxiW9XE+eD/FW2+WxgAgAEptGdglwGA8D2Y9Ocp1DEaMLP456pk4/T9j7PWJ7Ef/H34g2HUKwk6gtgwY6TpI2InApw4t/pViClF9Q4TvX5v9u7/vw69uc/MYsysKNR5Q5TqIMZkQgZtnjmBUbfY9o1kPd7Lgg+wfJCokApUeUPyrIJqidMHFcQ4/Mpie2c0/7wjkOIVErQCYQnXQIRVc9cPhgRzr+We7ef6vpXP7r59KD7CLW1NQJu1cxp331VAWwCJ2vg/fu+jD7A9UmCqsB2AKSn1DhIefGBXYbr53/ybBP94ondl/m7FLAFM4RtZ4PPLEKLbfIZgVO9au8bnqv4t+K7BtqbQby6YgRKPC/Q/XsNuU4Bav/vb5H9LSXFoj/5vzgJIc/TCFo6JCuOcPNUybHlxn9aEHOrnvrtKa+DOALisAJtTKyuA3944M7HYf9O1kdP7X1wZ2vALW5QFdrlMYM5BIBGb+eiTHnRjcXLWeHjjjlNXFvvNPurqtB2BCSQRuvHkEJ50SDfS4F1+wtlTv+Q/ELgFM+IjAT38+grO+Egv0uDNvSQS6lXihk/UFoHQegDYF4Zrrh3POucE2/mee6uI7F9p1f3+6vgCsdh3EmA2u+P6wQDb47O/Vl3s4+XOr6SnZ+T4DE1hVBtIGpbARQuZ8H447YpXrGEzZvYzrfhLM/PcwOv/bcb57WXWgx5w7p5cTj15Fe7v9jW9Ooa0MYaW1/21Thb887f5mSU938f6ivvmtONfOCLa4vTe/l2MOb2P1KhvxH5Cw0lP8Ntc5TGk7/T9jgTf+xYtSHPeZVYHsFVisFNo8z8cKgHHmlNOj/OK2EVkv593f4kUpjvhUG4sWlvY038F4vrR5ilgBME6c8Lkqbrl9JF6AT6QsWZziyEOs8afHb/NAWlzHMKXnmOOr+PU9wTzTv8GSxX3v/AsXWONPh+K1eh6yyHUQU1oOOayS39w7kvLsF/L9yNIlfe/81vjTF0EXeO2wwHUQUzqmTa/gvgdrqKoK7qJ/Q+MvtUU9s6TrYLEHdR3AStdpTPHbb/8K/u+Po4jHg2v8TUv7Gv8H71vjH6Jl0JDYMPyy0GUSU/z22KucB2fVUD0suMa/rNXnmMNXWePPiC6EvgVBwAqAyaHJu5fxx6dGMbImuOH+5ct8jvx0G+/OK6GtvAIkIgtgfQFQkQ/cxjHFatLOZTz6p9pANu/YYEPjf+dta/yZ0vVjfx6A5zPXbRxTjD62Y4THnxnF2LrgGv+K5X2Nf95b1vizob6+CR9dAqT+5TKMKT7jxkd49Mla6huCWcEXrPEHKUJkDqwvAB0k3wbsYUkTiO3Gejz6p1HsMDG4xr9yhc9Rh7bx9lxr/AHobqftXfioBzCpC5jvMJApEqPHeDz+51p23iW4KX4bGv9bb1rjD4bMg8ndsPEuACJilwEmKyNGejz8+Ch22S34xj93jjX+oKjonA3/3jg646sVAJOxYcOFR/80ir0+Edz83jWrfU44apU1/oB5/kAFAH3VRRhT+GIx4Q+PjGLvfYJr/GvX9E3y+fvrNjQVNMF7ecO/PyoAHZTPBqzUmiGJRvsa//QDg9u1xxp/TvW2E3ltw//06wFs1w7MGeAFxgyookK46/c1HHRIsI3/2M+s4o3XrPHnyN/Xt3UANh2tEX0JlY/nPZIpOGVl8Nv7RnLE0cFt2QWwapVy1Q+HBXrMrVmxwmfe2708/GBnycwtEOHF/muAblIAxJeXVPhGvkOZwiICt/3vSI49IbgtuzaY+LEIEz8W3PyBdFx+9TAe+b9OvnPhhyxdUtwPFvm+vNj//zeZo5mCFzFmEBdcHOeLpwa7ZZdrx51YxbOzR7PHXgGuUhJKvX/r/3+bFIBOGhZhC4SYbahviHDZFfnpoudbXb3HHx6pYbuxAS5SGCIC7yYZ39T/Y1t+p8ITeUtkCs7Z58SIxQJcwjdkGsdFuOL7xVngEB7f/ENbFgBfrQCYrTrymGAH/cLotDNjjB5ThL0Af8s39y2+ywSRPwPut8ExoeN5sOvkAJfxDamyMjj8yKIrdJ0d8NzmHxygzNV1KPJCPhKZoVHHO4NFo0JlZfF2//vbaaeiK3R/hYYt9kYfsJ/jaXGNA6xdk13LCcvecmvXZl8BVq/O/HtJJpXuIt6fsL9YgAuXhoFupU0PWAB6ST2S2zj5tXhRdvd2s319UJYsTuFnWYuy+V58n5KZMLOsyPYU9InMGujjAxaALsa9C/wzp4ny6OknsxvSeOqJcAyJrF3j8+rL3Rm/3vfhmaey+17++Eg4fha59rcXMv85h9CrXYx9f6BPbH2oU/l9zuLk2WOPdrKsNbOK3tMDd/82GXCizN0xc4vLuLTNejjzn8MGv7otQTJZ3JcB77/Xyyuzi6cAiMr9W/vcVguAT+S+3MTJv44O5YrL1mX02ltu6uD998LT7b33zmRGD8okEsrll2b2M+ivpTnFD69qH/wLC9gVl67L+lIrRDQFQy8AnYz9AHgjJ5EcuPN/E9x+69DePZ/7SzeXX/phjhJlJpWCkz+3mpbm9K/lUyn46llrmP9OMIXsxhnt/O7u8PSKgnTbzQn+7w+drmMESF/upH7h1j67zdkOoluvHIXowm+s5Zqr2kml0Xbu/k2SE49eRU8In0pduiTFwfu3pdUTWL3K5/PHreLB+4P7o/Z9+MqZa7j+mvR+loXA92HGte1cdP5a11ECpdvo/gNs815HlOYJInwA5PfxrBzbZbcyvvv/qjnymCqGj9j4I+jsVP76525+NqOd558N/zWg58Epp0c5+5w4U/ctx+tXzhctTHH/vUlumNHBmixu/Q1mtyllfOviao49oYphwwvv1lkyqfzpsS5mXNdejAuQ9KK92yeY0Ly1Lxj0NxaT5seBIwKNFRLl5bDDx8oYM8Zj9WqfRQtSJBKFOcA1ssZj/IQI8biwZHGKpqX5fWuORGDHSX0/y4oCmSzU2pJiwfspOjsL83c+OHkkofXHb/MrBjtElObPivBAcKGMMXmhenyCxm3O6UmjVGtZTFoWA/UBxTLG5F5rQusngGzzuiaNR56kV0V+G1QqY0weCL8arPFDWgUAfL/3dqBYL5SMKTbq+5E70vnCtApAF+Pfgy0XEzDGhJHMWj+PZ1Bpr3rgqfeTzAMZY/LFV9Juq0O6XxOT5jcAWzbcmPB6LaEN+6T7xUNa90iUnw49jzEmX1R1xlC+fogzNrQ8Ji3vA+OH9jpjTB4sSmj9TiBpP/QxxJUPpUdUbhpqKmNM7qlyw1AaPwy5BwDQGo+J/z4wduivNcbkSEtC2Wmgdf+2JYO1j+s6VPnR0F9njMkVVb1mqI0fMuoBACyoiknlfGBcZq83xgRHmhPauxOMH/IiDRnufjCxE5XrMnutMSZQqldn0vgh4x4AwNyKmNTMAyZmfgxjTJYWJXT1zjA5owUsstj/aHK3qFyV+euNMdkS5bJMGz9k1QMAUIlJy2xg3+yOY4wZOp2d0IZpIBk/qJflDoiiqv6F2JOCxuSbqnoXZNP4IesCAEnG/U2EollC3JiCINyZpP6V7A8TgChLx4l484B4EMczxmxTQlV3SdK4JNsDBbIJepJxS1G5PohjGWMGofwwiMYPAfUA+sytiEnN34HdgjumMWYzcxK6emo2I//9BdID6DO5W9U7GyieTZWMCRdfVb8WVOOHQAsAJKmbjeitQR7TGNNHhJ8naXwp0GMGeTCAUbQN75SuN7E1A4wJ0uKYlk9ZyZjsd3jtJ9AeAMAqaj9E9RtBH9eYEqaofD3oxg85KAAACRofRZiZi2MbU3KEWxPUP5abQ+dMazwq/usC/5a7cxhT9N5OKFMzedY/HTnpAfSp6xDlFCD82+waE049qJyRq8YPOS0AkKDhDRR7YtCYDIjKpQnqX83pOXJ58D7qRaXlzwIH5/5cxhSNpxNa/xmQnM6ryWkPoI/4nkb+A2jK/bmMKQpLPJVTct34IS8FADoYu0zV+zw2HmDMYHpU9eR26lfk42R5KQCwfpagyrfzdT5jCpJyXpLGF/N1ujyMAWwq5rXcgepZ+T6vMWGnwp1Jv+H0fJ4z7wUAmmMx4XngE/k/tzGh9WpCuw6EiZ35PKmDAgAxVtQjPbOBCS7Ob0zILBQt27+D7VrzfeK8jQH0l2BMi6dyJLDGxfmNCZEPRb3jXDR+cFQAANqpf8tT+Sx2Z8CUrh5R/XwHdXNcBXBWAADaqf8Lql93mcEYV0TlnA4an3KZwWkBAEjQeAcqV7jOYUxeKZd1UP9r1zGcDAIOJOq1XCeql7jOYUyuiXBDh98QijkxoSkAAHGv+aeqfMt1DmNyRvQXCb/xPNcxNghVAQCVmNdyG8qXXScxJnDCbxN+/Vn5mOOfrpAVAACNxL3Wu1X1i66TGBMUEbmvw687DSTlOkt/zgcBtySpDr/uVETucJ3EmCCocFeHX/elsDV+CGUBAJBUwq/7sgg3uk5iTFaEW5J+/Rkgva6jDCSkBQBAtMNvuBDRq10nMSYTKvKjhN9wbpiu+TcXwjGALcVo+W8rBKagKJclaLjGdYzBFEQBAIjTdJaK/BIod53FmG3oRTkvQcMvXQdJR8EUAIA4Sz+t4j0AjHCdxZjNKazzlJM6aHjCdZZ0FVQBAKimZbIv+kdge9dZjOmnSdQ/uoNx/3QdZChCPAg4sHbq56K904DXXWcxZr1XRcumFlrjhwIsAAAJJjQntGs6wq9cZzGlTYW7EsrBrp7nz1bBXQJsLkbzOQg/BypcZzElpUuVS5I0FPRclYIvAAAxmqciPIAtMWbyo0nV+3ySutmug2SrIC8BNpeg4TXRsv0U/uo6iyl6T3sqHy+Gxg9F0gPYSCVKy/ki/Bi7JDDB6kH1mgQNV4d5Zt9QFVkB6BOjeaoKd9nW5CYICvNEOTVBwxuuswStKC4BNpeg4bWkpj4uwk2us5jCpsKdSfWmFmPjhyLtAfQXo/UYxL8ZGO86iykoi1H5eoL6x1wHyaWi7AH0l6BuVkLZRUV+BITueWwTOj7CbTEtn1LsjR9KoAfQX5Sl+4t4M4HJrrOYUHpT1ftKsYzwp6OkCkCfuRUxRl2C6PeAmOs0JhQ6UK5JUH89SI/rMPlUggWgT5QljXiRa0U5jRL+OZQ4FeEPKZ/vdNKwyHUYF0r+Dz9Gyz6I/gyY5jqLyavXVPXCJI0vug7iUskXgD4qcVq/pH2rDtljxsVtoSj/1UH9PSDqOoxrVgA2oeUxWs5CuBxodJ3GBGqpKjOSdNwKk7omr71IAAACIElEQVRchwkLKwADmlsRo+ZMRK4AbXCdxmRlhaj+pIPuG2Fip+swYWMFYJuaY1H4mggXYE8aFppFqtyQJHUbjE+6DhNWVgDSol6M5qMRLgX5pOs0Zpv+ISo3dFB3T1jX4g8TKwBDFKV5uudxviqfBSKu8xgAFPgzqjclaHzUdZhCYgUgQ1Gaxntwioqci10euNKiIr/1fW9mF2Pfdx2mEFkByJp6cZoPwZNzVDkRKHOdqMj5wDOqcluSuodKbeZe0KwABCjKkkaPspNV9CRgH9d5iogCr6jye6H3vgQTml0HKhZWAHIkSvME4EQRvkDfLEP7WQ/dW6jen8K/u4vx812HKUb2R5kHlSzZySNyrAhHAAcCVa4zhVQSeE6VJ5TII52M/cB1oGJnBSDvlkTjeAf4nneoqB4K7O06kWMfIDytvjwdp+yJlYxZ5zpQKbEC4FiMFfXQPVU97wBRnU7f2EGxLmiaAt5BeEF8eTEFz3VSv9B1qFJmBSB0WuPVsJ/i74vHHqpMAXah8HZF7gF5W0Xf9Hz9l+C90o68AnUdroOZjawAFAQtj7N0V4hMUY8pgkxU9XcAmQiMdRyuFXShiLdQ0QXi8yZ4czoYO89u0YWfFYCCtyRaTdlEH3YQ/LHg1foeYwStRakVqFWoYePqR8Ppm8FYDlSv/1g70ENfF/3D9R9LCKxWaENoU2Sl57MS/DbFW+ahC9pJLbR59oXt/wMUtUxD2JBjqQAAAABJRU5ErkJggg==;" vertex="1" parent="1">
          <mxGeometry x="40" y="240" width="50" height="50" as="geometry" />
        </mxCell>
        <mxCell id="iyf6n7LOq6J_EW838Q4h-11" style="edgeStyle=orthogonalEdgeStyle;rounded=0;orthogonalLoop=1;jettySize=auto;html=1;exitX=0.5;exitY=0;exitDx=0;exitDy=0;" edge="1" parent="1" source="iyf6n7LOq6J_EW838Q4h-10" target="iyf6n7LOq6J_EW838Q4h-2">
          <mxGeometry relative="1" as="geometry" />
        </mxCell>
        <mxCell id="iyf6n7LOq6J_EW838Q4h-12" value="&lt;u&gt;&lt;font face=&quot;Helvetica&quot;&gt;Consumer&lt;/font&gt;&lt;/u&gt;&lt;div&gt;&lt;span&gt;&lt;font face=&quot;Helvetica&quot;&gt;groupID:&amp;nbsp;&lt;font style=&quot;color: rgb(0, 0, 0);&quot;&gt;postgreSQLDatabaseGroup&lt;/font&gt;&lt;/font&gt;&lt;/span&gt;&lt;/div&gt;" style="edgeLabel;html=1;align=center;verticalAlign=middle;resizable=0;points=[];" vertex="1" connectable="0" parent="iyf6n7LOq6J_EW838Q4h-11">
          <mxGeometry x="-0.0786" y="1" relative="1" as="geometry">
            <mxPoint as="offset" />
          </mxGeometry>
        </mxCell>
        <mxCell id="iyf6n7LOq6J_EW838Q4h-10" value="PostgreSQL Database" style="rounded=1;whiteSpace=wrap;html=1;" vertex="1" parent="1">
          <mxGeometry x="300" y="320" width="160" height="40" as="geometry" />
        </mxCell>
        <mxCell id="iyf6n7LOq6J_EW838Q4h-14" style="edgeStyle=orthogonalEdgeStyle;rounded=0;orthogonalLoop=1;jettySize=auto;html=1;exitX=0;exitY=0.5;exitDx=0;exitDy=0;" edge="1" parent="1" source="iyf6n7LOq6J_EW838Q4h-13" target="iyf6n7LOq6J_EW838Q4h-2">
          <mxGeometry relative="1" as="geometry" />
        </mxCell>
        <mxCell id="iyf6n7LOq6J_EW838Q4h-15" value="&lt;u&gt;&lt;font face=&quot;Helvetica&quot;&gt;Consumer&lt;/font&gt;&lt;/u&gt;&lt;div&gt;&lt;font face=&quot;Helvetica&quot;&gt;groupID:&amp;nbsp;&lt;/font&gt;&lt;span style=&quot;background-color: light-dark(#ffffff, var(--ge-dark-color, #121212));&quot;&gt;mongoDatabaseGroup&lt;/span&gt;&lt;/div&gt;" style="edgeLabel;html=1;align=center;verticalAlign=middle;resizable=0;points=[];" vertex="1" connectable="0" parent="iyf6n7LOq6J_EW838Q4h-14">
          <mxGeometry x="0.0792" y="-1" relative="1" as="geometry">
            <mxPoint x="16" y="1" as="offset" />
          </mxGeometry>
        </mxCell>
        <mxCell id="iyf6n7LOq6J_EW838Q4h-13" value="Mongodb" style="rounded=1;whiteSpace=wrap;html=1;" vertex="1" parent="1">
          <mxGeometry x="620" y="200" width="160" height="40" as="geometry" />
        </mxCell>
        <mxCell id="iyf6n7LOq6J_EW838Q4h-16" value="" style="endArrow=classic;html=1;rounded=0;entryX=0.5;entryY=0;entryDx=0;entryDy=0;" edge="1" parent="1" target="iyf6n7LOq6J_EW838Q4h-1">
          <mxGeometry width="50" height="50" relative="1" as="geometry">
            <mxPoint x="380" y="40" as="sourcePoint" />
            <mxPoint x="390" y="20" as="targetPoint" />
          </mxGeometry>
        </mxCell>
        <mxCell id="iyf6n7LOq6J_EW838Q4h-18" value="&lt;div style=&quot;background-color: rgb(255, 255, 255); font-family: IBMPlexMono, &amp;quot;Courier New&amp;quot;, monospace, Consolas, &amp;quot;Courier New&amp;quot;, monospace; line-height: 18px; white-space-collapse: preserve;&quot;&gt;&lt;div&gt;{&lt;/div&gt;&lt;div&gt;&amp;nbsp; &amp;nbsp; &lt;span style=&quot;color: #a31515;&quot;&gt;&quot;id&quot;&lt;/span&gt;: &lt;span style=&quot;color: #098658;&quot;&gt;1&lt;/span&gt;,&lt;/div&gt;&lt;div&gt;&amp;nbsp; &amp;nbsp; &lt;span style=&quot;color: #a31515;&quot;&gt;&quot;val1&quot;&lt;/span&gt;: &lt;span style=&quot;color: #0451a5;&quot;&gt;&quot;atacanyavuz&quot;&lt;/span&gt;,&lt;/div&gt;&lt;div&gt;&amp;nbsp; &amp;nbsp; &lt;span style=&quot;color: #a31515;&quot;&gt;&quot;val2&quot;&lt;/span&gt;: &lt;span style=&quot;color: #0451a5;&quot;&gt;&quot;gmail.com&quot;&lt;/span&gt;&lt;/div&gt;&lt;div&gt;}&lt;/div&gt;&lt;/div&gt;" style="text;html=1;align=left;verticalAlign=middle;resizable=0;points=[];autosize=1;strokeColor=none;fillColor=none;" vertex="1" parent="1">
          <mxGeometry x="275" y="10" width="210" height="100" as="geometry" />
        </mxCell>
        <mxCell id="iyf6n7LOq6J_EW838Q4h-26" style="edgeStyle=orthogonalEdgeStyle;rounded=0;orthogonalLoop=1;jettySize=auto;html=1;exitX=0;exitY=0.5;exitDx=0;exitDy=0;exitPerimeter=0;entryX=0;entryY=0.5;entryDx=0;entryDy=0;" edge="1" parent="1" source="iyf6n7LOq6J_EW838Q4h-19" target="iyf6n7LOq6J_EW838Q4h-22">
          <mxGeometry relative="1" as="geometry" />
        </mxCell>
        <mxCell id="iyf6n7LOq6J_EW838Q4h-19" value="" style="strokeWidth=2;html=1;shape=mxgraph.flowchart.annotation_2;align=left;labelPosition=right;pointerEvents=1;direction=east;rotation=180;" vertex="1" parent="1">
          <mxGeometry x="470" y="3.33" width="50" height="120" as="geometry" />
        </mxCell>
        <mxCell id="iyf6n7LOq6J_EW838Q4h-22" value="Operations" style="swimlane;fontStyle=0;childLayout=stackLayout;horizontal=1;startSize=30;horizontalStack=0;resizeParent=1;resizeParentMax=0;resizeLast=0;collapsible=1;marginBottom=0;whiteSpace=wrap;html=1;" vertex="1" parent="1">
          <mxGeometry x="520" y="3.33" width="140" height="120" as="geometry">
            <mxRectangle x="520" y="3.33" width="100" height="30" as="alternateBounds" />
          </mxGeometry>
        </mxCell>
        <mxCell id="iyf6n7LOq6J_EW838Q4h-23" value="&lt;b&gt;&lt;font style=&quot;color: rgb(255, 0, 0);&quot;&gt;POST&lt;/font&gt;&lt;/b&gt;: CREATE" style="text;strokeColor=none;fillColor=none;align=left;verticalAlign=middle;spacingLeft=4;spacingRight=4;overflow=hidden;points=[[0,0.5],[1,0.5]];portConstraint=eastwest;rotatable=0;whiteSpace=wrap;html=1;" vertex="1" parent="iyf6n7LOq6J_EW838Q4h-22">
          <mxGeometry y="30" width="140" height="30" as="geometry" />
        </mxCell>
        <mxCell id="iyf6n7LOq6J_EW838Q4h-24" value="&lt;font style=&quot;color: rgb(255, 0, 0);&quot;&gt;&lt;b&gt;PUT&lt;/b&gt;&lt;/font&gt;: UPDATE" style="text;strokeColor=none;fillColor=none;align=left;verticalAlign=middle;spacingLeft=4;spacingRight=4;overflow=hidden;points=[[0,0.5],[1,0.5]];portConstraint=eastwest;rotatable=0;whiteSpace=wrap;html=1;" vertex="1" parent="iyf6n7LOq6J_EW838Q4h-22">
          <mxGeometry y="60" width="140" height="30" as="geometry" />
        </mxCell>
        <mxCell id="iyf6n7LOq6J_EW838Q4h-25" value="&lt;font style=&quot;color: rgb(255, 0, 0);&quot;&gt;&lt;b&gt;DELETE&lt;/b&gt;&lt;/font&gt;: DELETE" style="text;strokeColor=none;fillColor=none;align=left;verticalAlign=middle;spacingLeft=4;spacingRight=4;overflow=hidden;points=[[0,0.5],[1,0.5]];portConstraint=eastwest;rotatable=0;whiteSpace=wrap;html=1;" vertex="1" parent="iyf6n7LOq6J_EW838Q4h-22">
          <mxGeometry y="90" width="140" height="30" as="geometry" />
        </mxCell>
        <mxCell id="iyf6n7LOq6J_EW838Q4h-29" style="edgeStyle=orthogonalEdgeStyle;rounded=0;orthogonalLoop=1;jettySize=auto;html=1;exitX=1;exitY=0.5;exitDx=0;exitDy=0;entryX=0.75;entryY=1;entryDx=0;entryDy=0;dashed=1;shape=link;" edge="1" parent="1" source="iyf6n7LOq6J_EW838Q4h-27" target="iyf6n7LOq6J_EW838Q4h-10">
          <mxGeometry relative="1" as="geometry" />
        </mxCell>
        <mxCell id="iyf6n7LOq6J_EW838Q4h-27" value="" style="shape=image;verticalLabelPosition=bottom;labelBackgroundColor=default;verticalAlign=top;aspect=fixed;imageAspect=0;editableCssRules=.*;image=data:image/svg+xml,PHN2ZyB4bWxucz0iaHR0cDovL3d3dy53My5vcmcvMjAwMC9zdmciIHZpZXdCb3g9IjIuODM0OTk5NTYxMzA5ODE0NSAzLjk5OTk5NzM3NzM5NTYzIDEyMi4zMjk5OTQyMDE2NjAxNiAxMjEuOTM0OTk3NTU4NTkzNzUiIHdpZHRoPSIxMjIuMzI5OTk0MjAxNjYwMTYiIGhlaWdodD0iMTIxLjkzNDk5NzU1ODU5Mzc1Ij48ZyBmaWxsPSIjMzM2NzkxIj48cGF0aCBmaWxsLXJ1bGU9ImV2ZW5vZGQiIGQ9Im02My40MDkgMTAwLjIxOWMxLjc5MiAxLjQ4MiAzLjg5MyAyLjExNCA2LjE2MSAyLjIzMS45MzguMDQ5IDEuOTAzLjAwMyAyLjgyNi0uMTY1IDEuNDY0LS4yNjYgMi45MjQtLjYgNC4zNDgtMS4wMjkgMi45LS44NzUgNS40MDYtMi4zODcgNy4yNzctNC44MjkgMS4wNjYtMS4zOTIgMS45NDEtMi44OTcgMi41MDMtNC41NjEuNDY0LTEuMzczLjktMi43NiAxLjI0Ny00LjE2NS4yNzQtMS4xMDcuNDEtMi4yNS41NzYtMy4zODEuMTExLS43NDguMTc4LTEuNTA0LjI0Ny0yLjI1OS4xMTItMS4yMjUuMjI5LTIuNDQ4LjMxLTMuNjc2LjA1Ny0uODU0LjA1NS0xLjcxMi4wODgtMi41NjcuMDExLS4yNjEuMDUzLS41Mi4wNzgtLjc3OS4wMjEtLjI0MS4xNDMtLjMyNC4zODktLjMyLjg2NC4wMTMgMS43My4wMzUgMi41OTMtLjAwNC45NjctLjA0MyAxLjk0MS0uMDg1IDIuODkzLS4yNDQgMS4zNTQtLjIyNyAyLjcwMS0uNTE0IDQuMDI4LS44NiAxLjU2OC0uNDExIDMuMDA3LTEuMTQ2IDQuMzkzLTEuOTgyIDEuNjEyLS45NzUgMy4wODQtMi4xMTggNC4yNzUtMy41OTEgMS4wMzktMS4yODIgMS41MzEtMi43NjggMS4yOC00LjM4OS0uMzY0LTIuMzU1LTIuMzQzLTMuODk4LTQuNjQ0LTQuMDAzLS44MzQtLjAzOC0xLjY4LjA1LTIuNTEuMTU1LTEuMDA1LjEyOC0xLjk5NS4zNTQtMi45OTcuNTAzLS42OTIuMTA0LTEuMzkzLjE1LTIuMDgzLjIyMmwtLjAxOS0uMDljMS4yOS0yLjQzNyAyLjYzNC00Ljg0NiAzLjg1NC03LjMxNi45MzctMS44OTYgMS43MzctMy44NTkgMi41NjQtNS44MDkgMS4zNy0zLjIyOCAyLjQ2My02LjU1NSAzLjM2OS05LjkzOC44NjctMy4yMzggMS42MDktNi41MTEgMS44NDQtOS44NzEuMDk0LTEuMzQxLjE1OS0yLjY4OC4xNS00LjAzMS0uMDA2LTEuMDcyLS4xMjItMi4xNDUtLjIyOS0zLjIxMy0uMTIyLTEuMjI0LS40OTItMi4zODQtMS4wMDQtMy41LS42NzQtMS40NzItMS43MjEtMi42NzktMi44MjItMy44MjUtLjg4MS0uOTE4LTEuODUxLTEuNzU0LTIuODEyLTIuNTktMS4zNzEtMS4xOTItMi45MTMtMi4xNDUtNC41MTMtMi45OS0xLjgxOS0uOTYtMy43My0xLjcxMi01LjcyNC0yLjIyLTEuMjA2LS4zMDctMi40MzgtLjU3OC0zLjY1OC0uODIxLS40MzYtLjA4OC0uODc2LS4zMTItMS4zMTUtLjMxMmgtOC4yNjhjLS4yOTkgMC0uNTk1LjE5Ni0uODk2LjIyOS0xLjk3OS4yMjEtMy45MzUuNjE1LTUuODM1IDEuMjA1LS43MS4yMTktMS4zNTguMDkxLTIuMDMzLjAyOC0uNTE4LS4wNDgtMS4wMjctLjE4MS0xLjU0NS0uMjA3LTEuOTcxLS4wOTgtMy45NDQtLjI0LTUuOTE2LS4yMTktMS44ODguMDItMy43NTcuMzMyLTUuNTg0Ljg1LTEuNTI5LjQzNi0zLjAyNi45NjUtNC4zOTggMS43Ny0uNTg2LjM0NC0xLjA1Mi4yNzktMS42NTkuMTA1LTIuMDQxLS41ODktNC4wOTUtMS4xNDEtNi4xNjYtMS42MDQtMS4yOTEtLjI4OS0yLjYyLS40MzUtMy45MzktLjU3MS0xLjI2NS0uMTMyLTIuNTM3LS4yMS0zLjgwOS0uMjM3LTEuMjQyLS4wMjctMi40OTItLjAyNi0zLjcyOS4wODQtMS45NjkuMTc1LTMuOS41NzUtNS43NzggMS4yMjEtMi4wODUuNzE4LTMuOTk3IDEuNzU3LTUuNzIgMy4xMjEtMS43NSAxLjM4NS0zLjE1NCAzLjA3NC00LjI4MSA1LjAwNS0xLjE4OSAyLjAzNy0yLjAwNiA0LjIxOC0yLjUxMiA2LjUwNy0uMjc1IDEuMjQxLS4xNzQgMi41MTctLjM2MyAzLjc3Ny0uMDU4LjM5LjA1OS43ODIuMDU5IDEuMTc0djUuNDg1YzAgLjM2NC0uMTA3LjcyOS0uMDYxIDEuMDk1LjExMy44NzkuMDc0IDEuNzY1LjIyMyAyLjYzOC4yMzQgMS4zODIuNDQ1IDIuNzU5LjcyOSA0LjEzMS4zOTcgMS45MTcuNzc2IDMuODMyIDEuMjE2IDUuNzQuMzIgMS4zODkuNjY3IDIuNzcgMS4wNDggNC4xNDMuNTggMi4wOTggMS4xNDYgNC4xOTkgMS44MDMgNi4yNzIuNjExIDEuOTI3IDEuMzA3IDMuODI2IDIuMDAyIDUuNzI2Ljk2MiAyLjYyOCAyLjExIDUuMTcxIDMuNDkgNy42MDcgMS4xOTUgMi4xMTEgMi41NTggNC4wODggNC4zODggNS43MTMgMS4yMDcgMS4wNzIgMi41NDggMS44OTUgNC4xMDkgMi4zMDcgMS4yMjguMzIyIDIuNDc4LjM2MSAzLjczMy4xMDQgMS40NTctLjI5OCAyLjc0OC0uOTI2IDMuODk1LTEuODY1LjEzMi0uMTA3LjI3NS0uMTkuNDMyLjAwOC41OTQuNzUyIDEuMzg4IDEuMjU0IDIuMjE5IDEuNjg3IDIuMjQyIDEuMTcgNC42ODUgMS41MjEgNy4xNjYgMS42NjMuNjAyLjAzNCAxLjIwOC0uMDUyIDEuODEzLS4wNjggMS4xODEtLjAzMyAyLjMyNy0uMjYzIDMuNDU0LS41ODkuNTkyLS4xNzEgMS4xNjktLjM4OSAxLjc3MS0uNTkxLjAzMS42NDEuMDcxIDEuMjU3LjA5MSAxLjg3NGwuMDgzIDMuMzYzYy4wMTYuNTEyLjAzNiAxLjAyNC4wODMgMS41MzQuMTIyIDEuMzE0LjI0MSAyLjYyOC4zOTggMy45MzguMTA4LjkwMy4yMjIgMS44MTIuNDM0IDIuNjk0LjQyOCAxLjc3OCAxLjAwNiAzLjUwOSAxLjc0MiA1LjE4OC43MjEgMS42NDYgMS43NiAzLjAzNyAzLjE0OCA0LjE4NHptLTMuNTkxLTE2Ljc2OGMtLjA3MS0xLjU3OS0uMTI0LTMuMTU5LS4xNTktNC43MzktLjA0Mi0xLjk0Mi0uMDU2LTMuODg1LS4wODMtNS44MjdsLS4wMDUtLjA3NGMtLjk4Ny41OTMtMS45NiAxLjI0MS0yLjk4OSAxLjc3Ni0xLjIwNy42MjctMi41MTcuOTktMy44NzQgMS4wOTMtMS4wNjMuMDgtMi4xNDIuMTUzLTMuMi4wNjktMS43MzYtLjE0MS0zLjQ3Mi0uNDEyLTUuMDI2LTEuMjY4LS42My0uMzQ3LTEuMjg4LS43Ny0xLjcyMy0xLjMyMy0xLjA0MS0xLjMyOS0uNTQyLTMuMDA4IDEuMDI4LTMuODE2IDEuMDg1LS41NiAyLjI2OS0uNzkzIDMuNDQ1LTEuMDY1IDEuMDIxLS4yMzYgMi4wMzktLjUwNSAzLjAzNi0uODMuOTg2LS4zMjMgMS42MDgtMS4xMjMgMi4yMjMtMS45MDhsLjk3NC0xLjI1Mi0xLjE3MS0uMTIyYy0xLjE2Mi0uMTA4LTIuMjcxLS40MjktMy4zMzEtLjg5OS0uOTA2LS40MDEtLjkyLS40NDUtMS41ODYuMjc3LTEuMTEgMS4yMDUtMi4xOSAyLjQ0LTMuMjc5IDMuNjY2LS44MDEuOTAyLTEuNTk2IDEuODA5LTIuMzk1IDIuNzE0LS43ODguODk1LTEuNTI4IDEuODQtMi4zNzkgMi42NzItMS4yNjIgMS4yMzYtMi43ODQgMS45NzktNC42IDEuODk1LTEuMTY1LS4wNTQtMi4yMzEtLjQ2Mi0zLjE5MS0xLjEyOS0xLjk3OS0xLjM3OC0zLjMxMi0zLjMwOC00LjUyNy01LjMzMy0xLjU1NS0yLjU5Ni0yLjc1LTUuMzYxLTMuNzcxLTguMjAxLS43MDctMS45NjQtMS40MTgtMy45MjktMi4wMzQtNS45MjEtLjY3MS0yLjE2NS0xLjI2LTQuMzU1LTEuODM5LTYuNTQ3LS40MzgtMS42NTMtLjgyNi0zLjMyLTEuMTk2LTQuOTktLjQyMS0xLjg5OS0uODI1LTMuODAzLTEuMTgyLTUuNzE1LS4yNDEtMS4yOTEtLjM4LTIuNjAxLS41NzUtMy45LS4yNjMtMS43NTMtLjMxMS0zLjUyLS4yMTUtNS4yNzkuMDg1LTEuNTg1LjMxMi0zLjE2NS41MzgtNC43MzkuMzEzLTIuMTc4IDEuMDMxLTQuMjMzIDIuMDYzLTYuMTc0LjYzMy0xLjE4OSAxLjQxNi0yLjI3IDIuMzIzLTMuMjc0IDEuNDktMS42NDkgMy4yOTMtMi44NCA1LjI5OS0zLjczNSAxLjQwMS0uNjI1IDIuODgyLTEgNC4zOTEtMS4yOTUgMi4yNC0uNDM2IDQuNS0uNDE4IDYuNzYtLjM3Mi45ODguMDIxIDEuOTczLjIgMi45Ni4yOTkgMi4xMjYuMjExIDQuMjA5LjY1OSA2LjI2NiAxLjIxIDEuNS40MDIgMi45NjkuOTI0IDQuNDU1IDEuMzc2LjE0OC4wNDUuMzY3LjA0MS40OS0uMDM4IDIuMDE1LTEuMzE2IDQuMjE2LTIuMTg0IDYuNTU5LTIuNjgxLjg4OS0uMTg4IDEuODA3LS4yNzEgMi43MTYtLjMyOSAxLjEwNC0uMDY5IDIuMjE5LS4xMzUgMy4zMjEtLjA3IDEuMzI1LjA3NiAyLjY0Ni4yNzEgMy45NjMuNDUxLjY0LjA4OCAxLjI2NC4zMDkgMS45MDQuMzY5LjMwOC4wMjkuNjMzLS4xOTQuOTU3LS4yNyAxLjY1NC0uMzgzIDMuMzAxLS44MDggNC45Ny0xLjEwOSAxLjI0Mi0uMjI0IDIuNTEyLS4zMyAzLjc3NC0uNDAyIDEuNDEtLjA4MSAyLjgyOC0uMTQgNC4yMzYtLjA3MiAxLjc4LjA4NiAzLjU0Ny4zMzkgNS4yOTEuNzQ1IDIuMTYyLjUwMyA0LjIzNCAxLjIzMyA2LjIwNSAyLjI0NyAxLjQ3My43NTkgMi44NzIgMS42MzcgNC4xMzMgMi43MTcuODI2LjcwOSAxLjY3MiAxLjQwOCAyLjQxNyAyLjE5OC45Mi45NzQgMS44NTggMS45NDcgMi40MzYgMy4xOTQuNDM1Ljk0MS43NDUgMS45MTUuODMxIDIuOTQ0LjEwNiAxLjI4MS4yMzUgMi41NjYuMjI0IDMuODQ5LS4wMTEgMS4yMjYtLjE3OSAyLjQ1MS0uMjk3IDMuNjc1LS4yNzEgMi43ODgtLjg3NiA1LjUxNi0xLjYxMyA4LjIwOC0uNjA3IDIuMjIzLTEuMzE5IDQuNDIyLTIuMDg5IDYuNTk2LS43MDkgMi4wMDMtMS41MjggMy45NjktMi4zNTUgNS45MjgtLjYxMSAxLjQ0OC0xLjI3IDIuODgxLTEuOTg0IDQuMjgxLTEuMzU0IDIuNjUyLTIuNzYyIDUuMjc3LTQuMzkxIDcuNzc3LS4yODEuNDMxLS41NDguODczLS44MjIgMS4zMTQuNzExLjQ3OSAxLjUxNi42NDggMi4zMjYuNzM2Ljc3MS4wODMgMS41NTcuMTM0IDIuMzI3LjA3NiAxLjIzMy0uMDkyIDIuNDYyLS4yNjggMy42ODgtLjQzOSAxLjIxNC0uMTcgMi40MDMtLjUxNSAzLjY1MS0uNDI0IDEuMjQ0LjA5MSAyLjEzNiAxLjAzNyAyLjA1MSAyLjIwMy0uMDU0LjczOC0uMzkzIDEuMzcxLS44ODMgMS45MTItMi4zMTUgMi41NTQtNS4yMjEgNC4xMDItOC41NDUgNC44NjUtMS4yNjMuMjktMi41NjUuNDM5LTMuODU4LjU2LTEuMTAxLjEwMi0yLjIxNi4xMTktMy4zMjEuMDc4LS44MTItLjAzLTEuNjE3LS4yMTYtMi40NDctLjMzNi0uMDg0Ljc1OS0uMTYzIDEuNTUtLjI1OSAyLjMzOGwtLjM4NyAzLjAyM2MtLjExNy45NTgtLjIwOCAxLjkyLS4zMjkgMi44NzgtLjExOC45My0uMjY1IDEuODU1LS4zODkgMi43ODQtLjExNS44NjUtLjIgMS43MzUtLjMzIDIuNTk5LS4xOTcgMS4zMjQtLjM4NiAyLjY1MS0uNjQ1IDMuOTY1LS4zMSAxLjU3LS43ODQgMy4wOS0xLjU2MSA0LjUwNy0uOTQ2IDEuNzI5LTIuMjg3IDMuMDQ2LTMuOTk1IDQuMDIxLTEuNzYgMS4wMDUtMy42ODUgMS41MjgtNS42MzQgMS45NjYtMS4zODIuMzExLTIuODAzLjM2MS00LjIwMi4yMzQtMi40MjUtLjIxOS00LjQ5NS0xLjI1Ni02LjA2LTMuMTM3LTEuNDkzLTEuNzk1LTIuNTA0LTMuODUxLTIuODY1LTYuMTgtLjE3NC0xLjEwNy0uMjk4LTIuMjIzLS4zOTYtMy4zMzktLjExMi0xLjI0My0uMTg2LTIuNDg3LS4yNDQtMy43MzJ6bTIuNzI2LTE1Ljk1NGMuMDE1LjgzLS4wNzEgMS42Ni0uMDY3IDIuNDkuMDE3IDMuODYzLjA0NSA3LjcyNy4wNzggMTEuNTkxLjAwNi42MzEuMDM3IDEuMjY0LjA4MiAxLjg5NC4wOTUgMS4zMi4xODkgMi42NDEuMzE3IDMuOTU3LjA5Mi45MzUuMjE3IDEuODY3LjM2NCAyLjc5NS4yMSAxLjMxMy44MDggMi40ODMgMS40ODYgMy42MDIuNTg0Ljk2MiAxLjM0NSAxLjc3OCAyLjM0NiAyLjM0MiAxLjcwMi45NTcgMy41MzMgMS4wMzcgNS4zNzkuNjg1IDEuMjQ3LS4yMzcgMi40NzMtLjYyIDMuNjgzLTEuMDE1IDEuMTk0LS4zODkgMi4yNzMtMS4wMjQgMy4xNzgtMS45MDEuODQ5LS44MjIgMS40NTEtMS44MjUgMS44NTctMi45MzIuNzg3LTIuMTQ2IDEuMDM0LTQuNDA3IDEuMzU5LTYuNjQ5LjEyMi0uODQuMjI4LTEuNjgyLjMzOS0yLjUyMy4xMjctLjk1Ny4yNTUtMS45MTMuMzc3LTIuODcuMDkyLS43MTQuMTc0LTEuNDI3LjI2MS0yLjE0LjEyNS0xLjAyNC4yNTYtMi4wNDcuMzc1LTMuMDcxLjA5MS0uNzkyLjE2Ny0xLjU4Ny4yNDktMi4zODEuMTA0LTEuMDE1LjIxNS0yLjAyNy4zMDYtMy4wNDQuMDY4LS43Ny4wNC0xLjU1NS4xNzctMi4zMTIuMjUxLTEuMzg3LjkwNy0yLjU2NyAyLjEzNy0zLjMzMS41MTQtLjMxOCAxLjA5Ni0uNTI4IDEuNjY2LS43OThsLS4wOTgtLjE0OWMtLjUyNy0uNjg0LTEuMDY3LTEuMzU3LTEuNTg0LTIuMDQ5LS44MTItMS4wODYtMS4zOTYtMi4yOTctMS45ODMtMy41MTQtLjU1Ni0xLjE1NC0xLjIzNi0yLjI0Ni0xLjgyMS0zLjM4Ny0xLjAyMS0xLjk5LTIuMDYxLTMuOTc1LTMuMDAyLTYuMDAyLTEuMTgzLTIuNTUtMi4xMTUtNS4xODgtMi40MDgtOC4wMTItLjEyNS0xLjE5NC0uMTU3LTIuMzg4LjA4Ni0zLjU3MS4zODctMS44OSAxLjM3My0zLjM2OCAzLjAzMy00LjM4MiAxLjU0LS45NCAzLjI1NS0xLjI0NCA1LjAxMi0xLjMzOSAxLjA5LS4wNTkgMi4xODctLjAxMSAzLjMxOC0uMDExbC0uMDM3LS4xOTFjLS43MDQtMS40NzItMS4zNjEtMi45NjktMi4xMzItNC40MDUtMS4wODYtMi4wMjgtMi40NzgtMy44NTYtNC4wMjYtNS41NTMtMS4xNDYtMS4yNTUtMi4zODktMi40MTktMy43NS0zLjQ1LTEuMzM4LTEuMDEzLTIuNzQ4LTEuOTE4LTQuMjUzLTIuNjU3LTEuNzk0LS44ODMtMy42NjQtMS41NjUtNS42MjQtMi0xLjg4NS0uNDE4LTMuNzgtLjY3NC01LjcxNC0uNjk1LTEuNjQ4LS4wMTgtMy4yODYuMDU4LTQuODkyLjQyOS0yLjQyNC41NjEtNC42NDEgMS41NTktNi41NjggMy4xNzUtMS4wNzcuOTAzLTIuMDE4IDEuOTE2LTIuODM5IDMuMDQ0LS45NjcgMS4zMjUtMS43NDUgMi43NTktMi40MTEgNC4yNi0uOTE0IDIuMDYxLTEuNTQxIDQuMjA0LTEuOTcxIDYuNDA4LS4yMTQgMS4xLS4zODIgMi4yMDctLjU1MyAzLjMxNC0uMDYuMzg5LS4wNjQuNzg0LS4xIDEuMjI5bC43MzItLjM4MS43MTQtLjMyYzIuNDE3LTEuMTA1IDQuOTItMS44MTYgNy42MS0xLjczNSAxLjE0NC4wMzQgMi4yMzYuMjYxIDMuMjU0Ljc2MiAxLjk1Ljk2MiAzLjA5IDIuNTk3IDMuNTg2IDQuNjY1LjM0MiAxLjQyOC41NzcgMi44ODQuODA1IDQuMzM3LjE3OCAxLjEzNC4zNjEgMi4yOC4zODEgMy40MjQuMDI5IDEuNjcyLS4wNTUgMy4zNDgtLjE0NiA1LjAxOS0uMDc3IDEuNDI0LS4zNzQgMi44MjUtLjg3MiA0LjE1NC0uOTA0IDIuNDE2LTEuOTEyIDQuNzkzLTIuODUzIDcuMTk1LS4zMTEuNzk0LS41NSAxLjYxNS0uODQzIDIuNDg4bDEuMTg4LjAwMWMuMTQ0LjAwMy4yOTEuMDA3LjQzLjA0IDEuMDgxLjI1NSAyLjAyLjc0NSAyLjc4OSAxLjU3NyAxLjAyOCAxLjEwNCAxLjU2NiAyLjM5NiAxLjU5MyAzLjg5M3ptLTIwLjY0Ny0xMS40NTVjLS42MTQtMS40NTQtLjk4My0yLjk3MS0xLjA5NC00LjUzOC0uMTA0LTEuNDc0LjA3MS0yLjk0LjIyMy00LjQwOC4xNDYtMS40MjEuMjctMi44NDkuMzEyLTQuMjc1LjA3MS0yLjM0Ny0uMDg3LTQuNjg4LS4xOTktNy4wMzMtLjA2Ny0xLjM5Ni4wOTUtMi44MDkuMjE5LTQuMjA4LjExMi0xLjI2LjI1Mi0yLjUyMy40OTEtMy43NjUuMzk5LTIuMDg0LjkzLTQuMTM4IDEuNjg1LTYuMTI5LjcxNS0xLjg4OCAxLjUzOS0zLjcyNSAyLjY5OS01LjM4Ljc5Ny0xLjEzNiAxLjY5OS0yLjE5NSAyLjU2Ni0zLjMwNWwtLjI1OC0uMDkyYy0yLjgyMy0uODk2LTUuNjkzLTEuNTk4LTguNjQ2LTEuOTAzLTEuMzk1LS4xNDUtMi43OTYtLjIyOS00LjE5NS0uMzEzLS40My0uMDI1LS44NjYuMDMzLTEuMjk3LjA3NC0xLjA2Ny4xMDMtMi4xNDguMTQzLTMuMTk4LjM0My0xLjc4Ny4zNC0zLjUwMi45MTItNS4wODkgMS44NDMtMS40MjYuODM2LTIuNjIzIDEuOTE1LTMuNjI2IDMuMjExLTEuMTA3IDEuNDMxLTEuODU0IDMuMDQ5LTIuMzg5IDQuNzczLS42MzIgMi4wMzUtLjkzNCA0LjEzLTEuMDE1IDYuMjQzLS4wNzEgMS44NTMtLjEwNiAzLjcxNi4yMTQgNS41NjIuMjM3IDEuMzczLjM5NiAyLjc2Mi42NTggNC4xMzEuMzU4IDEuODY1Ljc0MiAzLjcyNyAxLjE4NiA1LjU3My42MzMgMi42NDQgMS4yNjcgNS4yOSAyLjAxOCA3LjkwMi43MTggMi41MDEgMS41MjcgNC45OCAyLjQwNyA3LjQzLjcxOCAxLjk5OSAxLjU0OSAzLjk2MSAyLjQyNCA1Ljg5Ni41NyAxLjI2MSAxLjI2IDIuNDc1IDEuOTg0IDMuNjU1Ljc2OSAxLjI1NCAxLjY0NSAyLjQ0NCAyLjgzMSAzLjM1NCAxLjQ5OSAxLjE0OCAyLjY1OCAxLjMyNyA0LjE4Mi4wNjYuNjUyLS41MzkgMS4yMDMtMS4yMDcgMS43NzEtMS44NDIuOTAxLTEuMDA4IDEuNzcxLTIuMDQ2IDIuNjY5LTMuMDU5IDEuMTQzLTEuMjg5IDIuMy0yLjU2NSAzLjQ0OS0zLjg1LjI0My0uMjcxLjQ3OC0uNTUxLjcxNC0uODI1bC0uMzkzLS4zNDNjLTEuNDI1LTEuMzcyLTIuNTMxLTIuOTYyLTMuMzAzLTQuNzg4em00My4zNDEtMzguNDAzYy45MzQgMS4wOTUgMS44MzggMi4yMjIgMi42NzIgMy4zOTQgMS42MTQgMi4yNjggMi45MDQgNC43MTYgMy44NTUgNy4zMzYuNDIgMS4xNTUuNzU2IDIuMzIxLjYwNiAzLjU4NC0uMTA0Ljg4NS0uMDk3IDEuNzgyLS4xNzQgMi42NzItLjA2NS43NC0uMTgzIDEuNDc2LS4yNzggMi4yMTQtLjE0NCAxLjExMi0uMzUyIDIuMjIyLS40MTQgMy4zMzktLjA2IDEuMDY0LjAwMyAyLjEzOC4wNyAzLjIwMy4wNjcgMS4wODMuMjEzIDIuMTYxLjMxMiAzLjI0MS4xMTIgMS4yMjcuMjY0IDIuNDUxLjI5OCAzLjY4LjAyOCAxLjAwOC0uMDYyIDIuMDIxLS4xNDkgMy4wMjktLjEwNSAxLjIxMy0uNDEyIDIuMzg3LS44NyAzLjUxMi0uMzIzLjc5NC0uNzA4IDEuNTYyLTEuMDcxIDIuMzU2bC4xNDYuMTU0LjIyMi4xNzIuMjI1LS40YzEuODg4LTIuOTc3IDMuNTY4LTYuMDY4IDUuMDIxLTkuMjc3LjkzOC0yLjA2NiAxLjgxMi00LjE2MiAyLjY1NC02LjI3IDEuMzExLTMuMjgxIDIuMzUtNi42NTMgMy4xNTEtMTAuMDk0LjM2LTEuNTQ0LjYzNi0zLjExMi44OC00LjY4LjE5MS0xLjIyNi4zNDktMi40NjYuMzg1LTMuNzAzLjAzNy0xLjMxMi0uMDM1LTIuNjM0LS4xNTYtMy45NDItLjA5MS0uOTg4LS4zMzUtMS45ODItLjk1My0yLjc4Ny0uOTk2LTEuMjkzLTIuMDctMi41MjktMy4zOTEtMy41MDgtMS4xMTMtLjgyMy0yLjIyMy0xLjY3LTMuNDE2LTIuMzYyLTEuODkzLTEuMDk5LTMuOTQyLTEuODI5LTYuMDgzLTIuMzI3LTIuMDkxLS40ODctNC4yMDctLjY5Ny02LjMzNy0uNzQyLTEuMjU2LS4wMjctMi41MTguMTA4LTMuNzcxLjIyNy0xLjEzNi4xMDYtMi4yNjUuMjg4LTMuNDA4LjQzOCAxLjIyNy42OSAyLjQzOCAxLjMwNCAzLjU3OCAyLjAyNyAyLjQgMS41MiA0LjU1MiAzLjM0OSA2LjM5NiA1LjUxNHptLTMxLjE4IDQyLjU2M2MuNzc1LTIuNDggMS44MzItNC44NSAyLjg1NS03LjIzMi44MzEtMS45MzMgMS4yODQtMy45NjggMS40MzUtNi4wNi4wNzUtMS4wMzEuMDU1LTIuMDc1LjAwNC0zLjEwOS0uMDU3LTEuMTQ4LS4xNDgtMi4zMDEtLjMxNi0zLjQzOC0uMjE1LTEuNDU0LS40NTktMi45MDktLjgwMy00LjMzNi0uMzczLTEuNTQ0LTEuMzEzLTIuNjItMi45MjUtMy4wMTctLjk4MS0uMjQxLTEuOTU3LS4yMzEtMi45NS0uMDc0LTIuNDIzLjM4MS00LjY0MSAxLjI3NC02LjcwNyAyLjU4Mi0uNDE2LjI2My0uNjQ2LjQ3Ni0uNTczIDEuMDcxLjE1MiAxLjI2NC4xODUgMi41NDguMTc5IDMuODIzLS4wMDggMS44MDUtLjA4NSAzLjYxLS4xNTMgNS40MTQtLjAyMi41ODctLjEwNyAxLjE3My0uMTcxIDEuNzU4LS4wOTYuODk2LS4yODMgMS43OTEtLjI3NyAyLjY4Ni4wMDYuOTIyLjEgMS44NjUuMzI0IDIuNzU4LjcxMSAyLjgzMiAyLjIxNSA1LjE0OCA0LjY4MiA2Ljc4MyAxLjUxNyAxLjAwNiAzLjE5NSAxLjUxMiA1LjAzOCAxLjYwOS4xMjItLjQyMy4yMzUtLjgyMi4zNTgtMS4yMTh6bS0yLjg5Ni0yNC4yODljLS4zMjUtLjY4MS0uMTM5LTEuMjQ2LjYxMy0xLjUwOC4xODQtLjA2My4zNzItLjEzMy41NjItLjE1MS4yNjMtLjAyNi41MjgtLjAwNy43OTMtLjAwNy45NTUuMDA2IDEuODczLjEzOSAyLjY2Ljc0NS41MDYuMzkuNjQyLjkwNS4zMTQgMS40MzctLjQ2NS43NTMtMS4xNzIgMS4xMzEtMi4wNDIgMS4yMDMtMS4zNjkuMTEzLTIuMzMtLjUyNS0yLjktMS43MTl6bTM3Ljk3NS0uMjQ5LjMxMS0yLjcyNWMuMDQ1LS4zNjQtLjE0Ni0uNDY0LS40NTItLjQ3My0uOTYzLS4wMjYtMS45MjUtLjA2MS0yLjg4OC0uMDc3LTEuMDg0LS4wMi0yLjE0MS4xNTQtMy4xNDUuNTY2LTEuMTE0LjQ1OS0xLjk2MiAxLjE5My0yLjMwOSAyLjQwNi0uMjU5LjkwNC0uMzI4IDEuODA3LS4yMzYgMi43NTIuMTM5IDEuNDQxLjQ1OSAyLjgzOS45NjMgNC4xOC42NzQgMS43OTMgMS4zNzggMy41ODUgMi4yMjEgNS4zMDMgMS4xNDEgMi4zMjUgMi40MzEgNC41NzcgMy42NDMgNi44NjcuMzIzLjYxMS41OTcgMS4yNS45MzQgMS45NjMuNzA3LTEuNDk2IDEuMDUxLTIuOTk0IDEuMDktNC41MzguMDMzLTEuMzAxLS4wNy0yLjYwNS0uMTQ2LTMuOTA2LS4wNDctLjc5Ni0uMTYtMS41ODgtLjIzNy0yLjM4Mi0uMTA3LTEuMTA2LS4yNzEtMi4yMTMtLjI5Ny0zLjMyMi0uMDI1LTEuMTI4LjA1NS0yLjI2Mi4xNTEtMy4zODkuMDktMS4wNzguMjY4LTIuMTQ5LjM5Ny0zLjIyNXptLTIuMTY5LS44NzRjLS4zNTguOTg3LTEuMTIyIDEuNTQ1LTIuMTE0IDEuNzA4LS45MjQuMTUzLTEuNzM0LS4xODgtMi4zMzYtLjkyNi0uNDI5LS41MjUtLjI2NS0xLjE0Ni4zNzgtMS41MDIuNzM4LS40MDggMS41NDktLjUxMSAyLjUwNi0uNTczLjI2MS4wNDcuNjUxLjA4OCAxLjAyMy4xOTMuNTM5LjE1Mi43MzkuNTYuNTQzIDEuMXptLTI4LjU5OCAzMC40MDNjLS41MjgtLjQzMi0xLjIyOC0uNDU3LTEuNzMuMDE3LS42MjQuNTktMS4xNzMgMS4yNjQtMS43MjIgMS45MjgtLjYzMy43NjgtMS4yMjkgMS41NjYtMi4wNDUgMi4xNjEtMS4xODkuODY1LTIuNTc4IDEuMjIzLTMuOTcyIDEuNTYyLTEuMTA4LjI3LTIuMjIyLjUyMS0zLjMzMy43NzlsLS4wMTQuMTQ0Yy4zMy4xNTIuNjQ5LjM0My45OTQuNDUyIDEuNjk1LjUzNiAzLjQyLjgwNCA1LjIxMi42NTIgMS4yOTItLjExMSAyLjUyNC0uMzkzIDMuNjkxLS45NDYgMS42MDctLjc2MSAyLjg0NC0xLjk2OCAzLjg5NS0zLjM3LjE3Ni0uMjM0LjI1Ni0uNTguMjc2LS44ODIuMDcxLTEuMDY2LS40Ny0xLjg1OS0xLjI1Mi0yLjQ5N3ptMzAuOTQ1LS40NjJjLS44MzEuMjc5LTEuNTA3LjcwNC0xLjcwOCAxLjYwMy0uMTM3LjYwOC0uMTg3IDEuMjM3LS4yNCAxLjg2LS4wMS4xMS4xMjcuMzEyLjIzMS4zNC42NC4xNjkgMS4yODQuMzY4IDEuOTM4LjQyNy44MDUuMDczIDEuNjIzLjA1IDIuNDMzLjAxLjg3NC0uMDQ0IDEuNzU0LS4xMDEgMi42MTYtLjI0NSAyLjAyOS0uMzQyIDMuOTk0LS44OTYgNS43MzgtMi4wNDguNjMtLjQxNSAxLjI1Mi0uODM5IDEuODc4LTEuMjYxbC0uMDUyLS4wODljLS42NjcuMDk5LTEuMzMyLjIyLTIuMDAyLjI5MS0xLjM2NC4xNDYtMi43MjkuMy00LjA5OC4zNzktLjY2MS4wMzgtMS4zMzEtLjA4OS0xLjk5Ny0uMTQzLTEuMTE4LS4wOTEtMi4yMS0uMzM5LTMuMTU1LS45MzctLjU0NS0uMzQ0LTEuMDAxLS4zODItMS41ODItLjE4N3oiIGNsaXAtcnVsZT0iZXZlbm9kZCIvPjxwYXRoIGQ9Im0yLjgzNSAxMDMuMTg0YzEuMDkzLS4xODIgMi41MjItLjMzOCA0LjM0My0uMzM4IDIuMjM1IDAgMy44NzQuNTIgNC45MTQgMS40NTYuOTYyLjgzMiAxLjUzNCAyLjEwNiAxLjUzNCAzLjY2NyAwIDEuNTg2LS40NjkgMi44MzQtMS4zNTMgMy43NDQtMS4xOTYgMS4yNzQtMy4xNDYgMS45MjQtNS4zNTYgMS45MjQtLjY3NiAwLTEuMy0uMDI2LTEuODE5LS4xNTZ2Ny4wMjFoLTIuMjYzem0yLjI2MyA4LjQ1Yy40OTQuMTMgMS4xMTguMTgyIDEuODcyLjE4MiAyLjcyOSAwIDQuMzk0LTEuMzI2IDQuMzk0LTMuNzQ0IDAtMi4zMTQtMS42MzgtMy40MzItNC4xMzQtMy40MzItLjk4OCAwLTEuNzQyLjA3OC0yLjEzMi4xODJ6bTIyLjIzIDIuNDdjMCA0LjY1NC0zLjIyNSA2LjY4My02LjI2NyA2LjY4My0zLjQwNiAwLTYuMDMyLTIuNDk2LTYuMDMyLTYuNDc1IDAtNC4yMTIgMi43NTYtNi42ODIgNi4yNC02LjY4MiAzLjYxNS0uMDAxIDYuMDU5IDIuNjI2IDYuMDU5IDYuNDc0em0tOS45ODQuMTNjMCAyLjc1NiAxLjU4NiA0LjgzNiAzLjgyMiA0LjgzNiAyLjE4NCAwIDMuODIxLTIuMDU0IDMuODIxLTQuODg4IDAtMi4xMzItMS4wNjUtNC44MzYtMy43Ny00LjgzNnMtMy44NzMgMi40OTYtMy44NzMgNC44ODh6bTEyLjU1NyAzLjkyNmMuNjc2LjQ0MiAxLjg3Mi45MSAzLjAxNi45MSAxLjY2NCAwIDIuNDQ0LS44MzIgMi40NDQtMS44NzIgMC0xLjA5Mi0uNjQ5LTEuNjktMi4zNC0yLjMxNC0yLjI2Mi0uODA2LTMuMzI4LTIuMDU0LTMuMzI4LTMuNTYyIDAtMi4wMjggMS42MzgtMy42OTIgNC4zNDItMy42OTIgMS4yNzQgMCAyLjM5My4zNjQgMy4wOTUuNzhsLS41NzIgMS42NjRjLS40OTQtLjMxMi0xLjQwNC0uNzI4LTIuNTc0LS43MjgtMS4zNTIgMC0yLjEwNi43OC0yLjEwNiAxLjcxNiAwIDEuMDQuNzU1IDEuNTA4IDIuMzkzIDIuMTMyIDIuMTg0LjgzMiAzLjMwMiAxLjkyNCAzLjMwMiAzLjc5NiAwIDIuMjEtMS43MTYgMy43Ny00LjcwNiAzLjc3LTEuMzc4IDAtMi42NTItLjMzOC0zLjUzNi0uODU4em0xMy4zNjUtMTMuODU5djMuNjE0aDMuMjc1djEuNzQyaC0zLjI3NXY2Ljc4NmMwIDEuNTYuNDQxIDIuNDQ0IDEuNzE2IDIuNDQ0LjU5OCAwIDEuMDQtLjA3OCAxLjMyNi0uMTU2bC4xMDQgMS43MTZjLS40NDEuMTgyLTEuMTQ0LjMxMi0yLjAyNy4zMTItMS4wNjYgMC0xLjkyNS0uMzM4LTIuNDcxLS45NjItLjY0OS0uNjc2LS44ODQtMS43OTQtLjg4NC0zLjI3NnYtNi44NjRoLTEuOTV2LTEuNzQyaDEuOTV2LTMuMDE2em0xNi41MzYgMy42MTVjLS4wNTMuOTEtLjEwNCAxLjkyNC0uMTA0IDMuNDU4djcuMzA2YzAgMi44ODYtLjU3MiA0LjY1NC0xLjc5NCA1Ljc0Ny0xLjIyMiAxLjE0NC0yLjk5IDEuNTA4LTQuNTc2IDEuNTA4LTEuNTA4IDAtMy4xNzItLjM2NC00LjE4Ny0xLjA0bC41NzItMS43NDJjLjgzMi41MiAyLjEzMi45ODggMy42OTIuOTg4IDIuMzQgMCA0LjA1Ni0xLjIyMiA0LjA1Ni00LjM5NHYtMS40MDRoLS4wNTJjLS43MDIgMS4xNy0yLjA1NCAyLjEwNi00LjAwNCAyLjEwNi0zLjEyIDAtNS4zNTYtMi42NTItNS4zNTYtNi4xMzcgMC00LjI2NCAyLjc4Mi02LjY4MiA1LjY2OC02LjY4MiAyLjE4NSAwIDMuMzgxIDEuMTQ0IDMuOTI3IDIuMTg0aC4wNTJsLjEwNC0xLjg5OHptLTIuMzY2IDQuOTY2YzAtLjM5LS4wMjYtLjcyOC0uMTMtMS4wNC0uNDE2LTEuMzI2LTEuNTM0LTIuNDE4LTMuMTk4LTIuNDE4LTIuMTg1IDAtMy43NDQgMS44NDYtMy43NDQgNC43NTggMCAyLjQ3IDEuMjQ4IDQuNTI0IDMuNzE4IDQuNTI0IDEuNDA0IDAgMi42NzgtLjg4NCAzLjE3Mi0yLjM0LjEzLS4zOS4xODMtLjgzMi4xODMtMS4yMjJ2LTIuMjYyem01LjkwMS0xLjA0YzAtMS40ODItLjAyNi0yLjc1Ni0uMTA0LTMuOTI2aDIuMDAzbC4wNzcgMi40N2guMTA0Yy41NzItMS42OSAxLjk1LTIuNzU2IDMuNDg0LTIuNzU2LjI2IDAgLjQ0MS4wMjYuNjQ5LjA3OHYyLjE1OGMtLjIzMy0uMDUyLS40NjgtLjA3OC0uNzc5LS4wNzgtMS42MTIgMC0yLjc1NyAxLjIyMi0zLjA2OCAyLjkzOC0uMDUyLjMxMi0uMTA0LjY3Ni0uMTA0IDEuMDY2djYuNzA4aC0yLjI2MnptOS41MTcgMi43ODJjLjA1MiAzLjA5NCAyLjAyNyA0LjM2OCA0LjMxNSA0LjM2OCAxLjYzOSAwIDIuNjI2LS4yODYgMy40ODQtLjY1bC4zOSAxLjYzOGMtLjgwNi4zNjQtMi4xODQuNzgtNC4xODYuNzgtMy44NzQgMC02LjE4OC0yLjU0OC02LjE4OC02LjM0NHMyLjIzNi02Ljc4NyA1LjkwMi02Ljc4N2M0LjEwOCAwIDUuMiAzLjYxNCA1LjIgNS45MjggMCAuNDY4LS4wNTIuODMyLS4wNzggMS4wNjZoLTguODM5em02LjcwOC0xLjYzOGMuMDI1LTEuNDU2LS41OTktMy43MTgtMy4xNzItMy43MTgtMi4zMTQgMC0zLjMyOCAyLjEzMi0zLjUxMSAzLjcxOHptNC44MDkgNC43NThjMS4wMTQuNjI0IDIuNDk2IDEuMTQ0IDQuMDU2IDEuMTQ0IDIuMzE0IDAgMy42NjYtMS4yMjIgMy42NjYtMi45OSAwLTEuNjM4LS45MzYtMi41NzQtMy4zMDItMy40ODQtMi44Ni0xLjAxNC00LjYyOC0yLjQ5Ni00LjYyOC00Ljk2NiAwLTIuNzMgMi4yNjItNC43NTggNS42NjgtNC43NTggMS43OTQgMCAzLjA5NC40MTYgMy44NzQuODU4bC0uNjI0IDEuODQ2Yy0uNTcyLS4zMTItMS43NDItLjgzMi0zLjMyOC0uODMyLTIuMzkyIDAtMy4zMDIgMS40My0zLjMwMiAyLjYyNiAwIDEuNjM4IDEuMDY1IDIuNDQ0IDMuNDg0IDMuMzggMi45NjQgMS4xNDUgNC40NzIgMi41NzQgNC40NzIgNS4xNDggMCAyLjcwNC0yLjAwMiA1LjA0NC02LjEzNiA1LjA0NC0xLjY5IDAtMy41MzYtLjQ5NC00LjQ3My0xLjExOHptMjcuNTg2IDUuMzNjLTIuMzY2LS42MjQtNC42OC0xLjMyNi02LjcwOC0yLjAyOC0uMzY0LS4xMy0uNzI4LS4yNi0xLjA2Ni0uMjYtNC4xNi0uMTU2LTcuNzIyLTMuMjI0LTcuNzIyLTguODY2IDAtNS42MTYgMy40MzItOS4yMyA4LjE2NC05LjIzIDQuNzU4IDAgNy44NTMgMy42OTIgNy44NTMgOC44NjYgMCA0LjQ5OC0yLjA4IDcuMzg0LTQuOTkyIDguMzk4di4xMDRjMS43NDIuNDQyIDMuNjQuODU4IDUuMTIyIDEuMTE4em0tMS44NzItMTEuNDE0YzAtMy41MS0xLjgxOS03LjEyNS01LjUzOC03LjEyNS0zLjgyMiAwLTUuNjk0IDMuNTM2LTUuNjY4IDcuMzMzLS4wMjYgMy43MTggMi4wMjggNy4wNzIgNS41NjQgNy4wNzIgMy42MTUgMCA1LjY0Mi0zLjI3NiA1LjY0Mi03LjI4em01LjMyOS04LjY4NGgyLjI2M3YxNS42MjZoNy40ODh2MS44OThoLTkuNzUxeiIvPjwvZz48L3N2Zz4=;" vertex="1" parent="1">
          <mxGeometry x="300" y="360" width="60" height="60" as="geometry" />
        </mxCell>
        <mxCell id="iyf6n7LOq6J_EW838Q4h-31" style="edgeStyle=orthogonalEdgeStyle;rounded=0;orthogonalLoop=1;jettySize=auto;html=1;exitX=1;exitY=0.5;exitDx=0;exitDy=0;entryX=0.75;entryY=1;entryDx=0;entryDy=0;dashed=1;shape=link;" edge="1" parent="1" source="iyf6n7LOq6J_EW838Q4h-30" target="iyf6n7LOq6J_EW838Q4h-13">
          <mxGeometry relative="1" as="geometry" />
        </mxCell>
        <mxCell id="iyf6n7LOq6J_EW838Q4h-30" value="" style="shape=image;verticalLabelPosition=bottom;labelBackgroundColor=default;verticalAlign=top;aspect=fixed;imageAspect=0;image=data:image/png,iVBORw0KGgoAAAANSUhEUgAAAMgAAAENCAYAAABKCiotAAAj0ElEQVR42u2dB5gUVRLHZ3eZzcvuksTAqZgdliRBUBAFRUXoIUrUQxBFEJSkqCQTSHQFARNKEgmKEiQICKh3551ZDJjjKXiCAhI29dXr/g/M7k7qme6ZDlXf9//009kJ3e/X71W9elUuF1t4u1ByuzxSJv2zGqkWqQ7pDNK5JA/Ui15zI+lW0kOkx/20mvRv0n+i1MYK7zeHNBCf14M+uwW+w3mkM0mnk2qSqpNy6DVprgs7JfONZIvNBAQeAsAjnUNqSLqEdBWpH2kEaTYNuGWknaSPSHtIsiJPgqV+jz9In5LeIS0mPUX/bxLpFlInUhtSU9K5pFNIVUlV+MazBYIhg3QGqSXpOkAwVoHAI63Dk/snUnHCB79+2k/6lLSB9AzpftJQUlc8DC4kVePB4Uwg8khNSF1Iw0jTSMtJb5O+Ix22EQhatQcPhFdJ80l344HRinQ6zzL2XS4JIAYAhhWkt0hfkf4klTkYiHA6itnzHdJ60lz4Vi15hrE2FPmkK0nj8TT8kPRf0hEe9DFJLDN/JX1M2kaaR+pLOpuUwgPPnDCkwI84CdGcpaTPSL+QDpJKLTH46lkOljLMMP8jfY8H0VD4L9mkVFISD9DEQZGPJ1cP0rOkn3HDSqz4dE6+1PKzi3gQHSPtI+0kjcbSVjy43Dxo4wNGGkKvnUmF8CNK7LB8Se1K/yyw3ZJsL2klqQ9mlhwexMaFYhtjCl+LpZOtBlN6X5pFmtnWdykibYVPeCU7+PrOGM1wYV8nHbKrA5w5zCu729veyS/C/ouY/bthM5b9lCjAECkdDZCq8U87g+FT9kSvnHmzY6Jhx7A8FvtP1zIk2uCoThqD0OwBJwyYpCaSnDvbK+dOkOSU1o4KGwv/cTdmlPN58AeHIgl+RlvsaB9wzCCpJ8lpN3vlvGe8cv5MWmoNImAaOm5/RexP7SKNJNXmPZXKyykRmZpJ+s1pO9sp7SQ5Zw7BsdgrV3tMkvMeImA62zKiFcm+ymHs2LdVMiAYDimLdA12ZYsdNiDk5ItpxriPZo/nTwAiVPVuSa7SxpKbh3rpS9IQUg0nwyFSrG8mfeDEQZDcQpIz7iC/YyEBsqI8IPmzJDnrVluHfSORyJObqCSXOhCOdNJwpCg468bTrJDciuAYSXA8p8JRERBlqTVVktP7kD/SyNGQ7EeI/zSnATKI9KMjZw6CI3M8wbHoBByBAFEgeViSUzs60h/x90uEX/qgklrkEDiakz534g1PuVySs6cTHM+XhyMYIEK5Ex0X+g0EicggvsP+OV0e6SzSDstk2Oq4rBJw5DxKMCyvDEcoQKoVqk57chPHQ/IFDrml2BUOcXBpqqP2OITqS3KVq0PDERIQoUdp5rmTIGnueEjWkM6zKyDtSB85Do4ONLhnhIYjLCAisjVdUlJRHB7ZEkmq/ZWzJjaDQxyeGee0HfKUKwmOKeHhiAQQBZJpBMkAx0Oy0n5RLY9Uh/SCo+BoQ4N5AjnkS8PDESkgSmTrEYR/GzsWkF+URFabASLOcmx3yk1Moid85tjI4dACiC8dJb2HI3O2fGpPSrYTIJc7Zcc8qQEN3qEEx5LI4dAKiA8S5fyIM9NRbrJXyFc9Ivud7W9cgSSn9pXk3MXa4IgGEGWPZBIt5S51JCC32stRV+PXP9jd7xARq6pPaocjWkCUxMa7HLlHwoBYcpd8WmQRKz0BUc6QDHScP8KAWC1tPeMu7X6HHoAo/shknCGpx4AwIGZzyunJnTaA/IEF0cMRKyBKOsp9tMRry4AwICZzyqt0kuScx2KDI2ZAhMQZkiHqbMaAMCCmqYaYNYEG+AsmAET4I1NpNuuuprgwIAxIYpdWjSU5fTCt/5fFDodegPhCv+4rbe+PMCBmD+m6vVKlQ09mAEQoe4Ttl1oMiKmXVs1pafWQfnDoDYjwR9J72XqpxYCYWWl/129pZQggSEVJacWAMCDxnj0uk+Scwug3BOMFiAj9Zt1i21mEATHrAaiM4ZKmLN2EAYKiDzYtiM2AmFFVrlOrIOoNh1GAiFkke6Qtz44wIGYM64ozHnr7HoYCImaRKdgbKWBAGBAj09h7eqPO1E0kIErG7z00+13GgDAgRjnmLbFjvsKagIiCDxn91MNcDAgDYsDsQU/hBdYFRJlFxtpqFmFAzFRkOvNeY+GIByD5MyQ5vbdtZhEGxDSnBDvS0/cZ6wPi80VssnnIgJilNVrGGP03BRMFiJKC0tMWs4jtAOlsxVYHKVcY73vEFRBfMeyWDIjZALmK9IkVd83jAUc8ARGywb6I7QBpQtppteJvRu2aJxqQqveqy0cLA9KDVMVOgIi2B6utdBPc3aSAfTzsAIjwRdwdLAvHH0qlTluZ2uL5EZfaQN4SNyJznD5HaU0JiMjRut2ygGwmneGynXmk7qSvLeGcX0bLkHnxgyPugIgcrQfod15iSUDGkrLtCEh10jKXBdo9p/X36nqc1oyAKBuHfSwHx9uki0lJdgQkidSU9B66BZk2epV1f3z2PhIJiC/9JLmpZeDYRxpKSnPZ2jzSLWjKaM4zH9dKcs7j8YUjUYCIY7lKF13zwyEaL80g1XTZ3tQe6Q8iGmG+5dXNtLxa6AxARDRLtHUz+Z7IEdJy+/YmDAxJPmma2SBJaoTExOUOAYSUM8bUO+tFpPUu0TrcUab6Iycj9LvfNNGrtqjQvsI5gCjLrE6mBeQF++15aIPkJNJw0ldmuCGpveKTuWsmQESL6Yz+pktgPEqaQzrX5XjzSFmkK0nbsN5MWPQqfagU181BUwAillmjTLMnUkL6knQ7Hp5JDIgKSQqpBmk86ZtE7JUkX2L8sVqzAiL6i6R2SDgYonvtEmwFuJ0GQJoSvYrstc2Qt/UTqTRu4d329CSd5UxAhDL6JmyZ9TtpExIQcyIYHzXtlcmr/qhzSfUibt3rkfLQyfQV0n/jAYq7uyTnPudcQERulqg5HEcwRHBmB2mMptwqj9SXVNdeyy+P1A45/NU1LrvOJN1Meh4zSplR/ofoEpUoOMwASO6EuBV1OAB/8y5SQ01p6+K1Hmk2qaPd0t3FkdtXSZdG8bdVlCeMR5JIC4w4uivOfmSMcjYgohmo+xrD+oqUYSn1ImkgwMiIYiw0IP3TrmfSRSbvVE2zSOX3OZV0Geke0vvYSNLHQZ/kdTQgQunX08NC/2LXYolcSLoGKwJ3lPc+kzQBm8u2Ldqwh+SNKUqh7p+I0HAdUgfSY6TdpEOIfmlehqW0i+/pQbMCkjWUALko5mjUEeTaCf+xH+kC+JTJMdzzZIyb3bi/tq5q8oUSqdLnfZMRIcvBEuxJ0kd4ah2M1LkXCYrxTm83IyCifVsUnakEEHtxX5cjGbUuDsml6LQF0JL0ut/Dz/Zlf0R+zTkG5nmJ6fx+0losxX4OeppRtFPrmlj/wyyA5M+i2bR1RLOEmCF2YdDORmSpju6RJRWOpriPjqqLJXyHFaQCQ6MRHqkqCkYMIM0ivYxDNz/4/BcR+0/rz4D45L62kqNeAgd7FwItj5MGk1rH5E9Gdv/qk9Y5tXDcX1into/LIRg1Giac/EtIvRFmfJLW3K9l3CntYUCwYdiH/Lj6Sm7cRtLTmIlvwX2K3/6DR2pBesnplRXFsucdhP7yE/C9aro7Sy2rzvOuZ0BwynCc9FZyM+k6ujYe5EOlxvmeuDFetodIOXJU6VHhSP9Imo4wYFx3SGlwVictZkCOazMpM0Hj5BTSOCQsFnNt3vISYdp3Uf0kK6awIAMSiz4n5cRxbIhIZC6pE2kLdtrDheodW7y6DOFZ4cC3IVUzGhQGpJL+JFWN07jIgU+4GBuAkebccXV3hBJn46xILaNAYUAq6SCplsEzRj7Ct+Owh8LtD2LIofoWoHRRolAMiNH6i9TYgDGQgmPWIgAwBRu60Z77YUAC6DtMxbcgfaGKToBUIz3DgBzXYdLlOt9/EXy5kbQI6SIlXN1df0B8PspepEvPwNMoL0ZAskmTGBCdAVEDLZcgwfBVnbOwGZAIdBgZwltJk5SNpegAySSNYkB0AETdjL2QdCdpDelT0p8GnONhQDTOKoeQoCh6kEwkXQ7HPitc5jANzgzSCAZEIyAqDJkI0YpzGqPwsPoZUJQYeOiKAYkBlhLs0H8Jn+XvyOk5HYUhUisAkkzyMiBhAFGBqIqkxAKcIX8ce1cHoj1qwIDEF5BQ559F6sJcHOFti1NtApocGqBtSccYkONRrFZI+TgZtQQuQ8buA6QNJqitzIAYrD04uinOuj+YdqM0I3eJ9w8GRCkkd9R9jeJYjyY9hZT2H/Q6vcmAWAOQiiVHS3PmeIsYEKVvSFlSI8Wn4yaeDAjOpLeW5OzJ7IP4GuuIIt4MCANyApCLJTnzbgZEOXZ7PwHSkAFhQPzL/jSW5PQhEgOCrlMmK2TNgJiisnvvxBWuNhMg2XcyIAxIoNKjXnp6PsWAZN6kVppkQBiQ8pGsKxPXPMdMgKT3MH1LNgYkYY76fRJXNbnasPKjDIiVAXFyAx3/pp4prSzR9ZYBSYij3of8kAXOBSTvAZpJWzAgDIgJm+iYAZDsYQRIEwaEAQm2H9IkcW3YzACI0mWqIQPCgIRQ+lCvnLvEgYCQ/5Ha0RIOOgOS0P2QzuSHzHdghynyP6pcbgk4bAlIexy/NP3FF05q9gwH9igcIckpLRiQRAHSAucvzH/xC2gtPpqWWc87rMttf0tk8fp0vd16FNZDq19L3AB3N1pyPOscQESKe1oXy/gfstLr0mZdbnNx3LXUCjdAtCGLd0u2RAJS9T7yP66wDBxvG9Z8KcGQ9ESVREvciPTbaOAucwAghZKcNZh8r4sscV+KcS4+z46AiF4Ty0x2tjl48mJ7WmYttD8g+dPV7rYWeXB9ohSjs615pK6kr+JYHib6ZVZDerJOtj8gVcfT8qqdJeA4gAKB+XYGRNRVGo9Cb6aPZqX2szkgj6L1c2PTw1GCdn0XuGxvHqk2upaafhZJaUNP2Hn2BSTvEUlO6256OERg51+ozZXscoSp/e+2mx0S5az6MMm2gIjolcmzdwUc75FahSshazdAkgDJGnS7NW+GbwcaSM/YD5D8mZKcOcDUex/FgKOB0lvEkaYutx5C4ekSU84iTSU5Y4TxB6niDUjeQ6bOvTqAZXh9l+NN7UM4CBtAx0w5i0jGJzDGFZBCSc4eatol1fekwrj2ZLcAJG60LBCN638z5Swy2tiNw3gCIlJL3O1NB4do3rqZ1F+pws8WEBTRJ3sw6U2zzSYiDT5nrj0AyRltqtCumDW+IN2DivupThz4GUqzlchem44OqBPR48M0+VmZY42bReIGiDgYdZ1pnPP96DFyqdISOrLxIRojpdkNkAvRxCYpwtcnYVOxMel+rEuLEx0WVorLzbM2IDkjJTm5WcI3/f5HepbUWvNySm3cU8dugIhe5yOUJZT2cLCYUc4iDSG9T9oXQ/vg2M+KjDTmrEg8AMmfhtkj/oXhytCW7XO09G6G9njJGsdDGukJUj977YuoR27fRi5WlRjepxo6Ha0ysEFk6BOHrYxJhTccEJFWMoS+f/O4gnGE9A2a8AxV2kHHNo6uRsKibc+kLyWdqsP7+bcYFvHyz0hH43Xj0wbq74sYDYhoaxCnyFURjjVswWwh6ZKe7pFqkuYjeGNbQPZjqZSu43uLppId4dSvxTR+xOgypdkzrQOIsmt+k+GRq1/RD/0RnP05R7dBrC6z+/sV/rB1VROR7t5O900gtQvreSgQMRz99d4xZGahNby7u77lgQwDpFDt+VGlje5AiOu6m7QaGdrXK9m2ImKp/30VTVf/46SyP/9SHDXjPi8NeyoiCnYt6T7kff2o5+ahnl2pjAIkbwotCfWr2P4betHPhKMsinGcjSVvkgH30Zez91qF49q2B0SE+t6CH5ESh8/PBjBihrmKNIa0HMuxv7CuLcb3iszpr6eeOtRrqWUIIOSYZ9+uqVpJKa7DMSxTf8A5jMmkbii+8Tfl0JLRUSQVjgI4+MecWDhO3IwPsV7NjlvejQgtiourPvVyEULuAh/mGcxuIvLyE+l3RMqOBiw4UV+/gtdGAJI7iSBuGRCEY3gwiP2IX7DPJKJD60hTSL0xOPNwndLjmlErNpXVFPdPgySxOqqy4s+IRp1lmlpH6hNSbGzeQBpFmocn6Q7Sv0m7ANHPtNTalzHK+1fuUm9ZTJAs8+p91rw41SvtxffcjT0kMWtvxSbdZDycWmNWcJvguicrUU6PNBLgculR6BCWPFdHnJKSmN+RDZBbkjqTBpDuTu3lnVb1ae8HNNCLo55BXvDKted01QuQ4twHpFXJTaTb6ft5sVFbgDSNFJNeW9+ssQCbwVybN4A+Jo1THD8LGQ3wKqTupG+jBaT68i7yBU/cqBcgm0hnk5IsMDaEr3EGaTQ2kyM5F+To4tWHsJ8xSNkcsg4k2aQHSIeiAaTW8m5ym+eG6wHHx6RrSG4LjItcLGPXRDBrMCAVHPhfkFLSXbmQ1oCkNmkVqVQrICev6CH3WDY+Vji+JQ0kZZl8PGRjTLwYZdV/bn/gl7awB5GlocjFcpv5pBkN9gakXVoBqbOypzz8pUdjgeN30kRSnknHgBv3T/hE67HzHm3SKQMSIBv0CHbhxcGai5Cbk2pCQNwkL+knLYA0Wn2LPH3DYrnG7KiiWQdJhaSqJrvvKYDiAoTR30d4Odb6AwxIBDu6K5GfcxE2AZNNBEkWaQjp10gBuWrNKPnJ116Uz5t/g1Y4jpDmkmqZDIoCzBZPYr+F+4PEERD/JdgunGXvh3MGNUwCSU047fsiAaTX+knykm3r5KsWjdQCRxlprSngECcCPVIjHEeYRvqHgSWdGJAoD/3/Awdqbkfs/7RExv1p4NclPR1JZGvUpjnyyzu3yINXTdMCyDZS0wTe15o4LjsI+VmvI2ObO0yZEBB//UH6COHDGaQb8XTLTgAkBaSXSUdDATJn23J5w5s75EdeXSifNa9PJHBsJbUixTMFJBn5WL1Rz2wVsmx/i3PvFwZE51NtP8FBfBU1lwaSLtb1XEpwQJJJ9Ukbg+20n7qqp7x0x3p545s75We3vCy3WzgikpnjMsP3OtRiGxfgHPj92J96F7lbiayIyYAYWGLmCJIQf0I272o0ZemF/KvqiNNnIKkxJdawMiARy623SZVytlq9MkxetXOzAsj6N7bLI1c/Jp/2eI+AKSTYJW8ZMxzqOQs3EhEz4UOcieMBY5F79jFg2IslrFlqKTMgcYamCOD4MlzFQavnkPbSHecezsUAOgVr71wMLHeEkCSRWpA+q7iROGjDVHnNG9sUQNRZ5BW5PTnrNWZ39ofjAOlZpJAkR7gc8g188X1PJp2Ok35imdQHSYHzkcX7LbIYDiPb18zt8hgQE2of0q834Wz9VAwwET27BqfeBEjNUQDtHKguumtVS24l1cyZ5e2Su9j7ad5y7zEBxymrrpdnbX1e8T98gAg9tG6B3Pjpm+WaApJHpQN5U6TnMwcqy51qGPBn+H1GAT5X6Ap8n67IRBZLoyXYnHsXs0Gpxe8FA2JBHURq+edIiV8LvYQGptOFkhpKhe7u0qbsyd6DonxQm1fukBftWFsODt9S60GCpP0zo+QaQ3v8nNJCOasyHXoM2c9r8fR/Ayntu+MURWJAGBADJU4jXinJ1R/uLg9/tVB+5Y2tlQARWrdju9xn3GQ5q3kPvmYMiPMgqdmpj/zwkkUB4RCaNPdZ+ZQ2N/K1YkCcKXeDLvKdj8xVZoqKcDy/boN8ab/Rckr9znytGBDnquOQCfLyDRsrATJmxny5Vqu+fI0YEGerbvuB8pMrV5eDY/WWLfK1t46Tk+rx9WFAHK7Uhl3kqQuWyhveOAHI48tWyQ26DOXrw4CwhIY9PEdet/3144A8+MQi+W9tb+Jrw4CwhDoMHq8sq3yAjCb/I7d5T742DAhLqMA7RF65afNxQG57oFCuwtErBoSlKu/iXvKy9RuOAzJo4iy+Lg4E5Hu+sUEKYdfzyoteWceAOBiQq9Hkhm9uEE2a+9xxQAbTEiulgJdYTgKkKcrm880NotHT5x8H5K6ZT8r5LXrzdQmuXqap46wTIGfjAA7f3CDqc9cUeQMAubfwabnGpbyLHkQHlL4vtjL14M60AH0eWAyIVm2NuRmoSSHpiVNrfJMDqO2Ascd30xmQkBqt9CyxISAn4fBQCd/kymrW804GJLw+QOuJJDsCkoT+Dx+Z6PC/aeSRblM2C9fv3M6ABPc9Rpm6f4xOkNyMc9F80/1bSxd45fOvu1W+j+AYMH4GR7HKSxTTeJxU22V7U8vMTMcTgW9+BYn9j9SGXRVg+HocbzctSjNd6HKMqbWnZqNBJg8CVjCJ9giblfKmjjJ1qSXq5j7KkLBC6AWllJIjTYVEdDS9G+VyeECw/JdVomL/eS7Hm1qhsDNqSXEImCVKwo7AwzOZAVEhcWPJJXbbf7FB5T+W9vKvv8MZbxOPouJWXnZdAsdsD4PiCP2BypC9GIzIQcknDSa9ZpNasqzK+hPLatG78Cwe9NohSUFh5mGkFaT/8g68bWoYv0maRGpir7T1xIAi+licjmTHZ+HE8UCzlsSDbR8KbQ93qVXoM3lw6w+LcORFaf8HXWop/8M8+EwvkcEtepB0I51vr5OA5oQkGaHh8zCrPIflVykvwUwzW4hl1DbSEJfapruWK4HNVJ2+/MpBKn0f7Lx+g+n8CDv3cVERHO6fsYQSUNRHoCXVnqnp1oZGdGDqhD2VLSgWsRc3kge0PnsWok3dVy61w+0C0gD4iQyDxWBJg0M4lPQUaSN8lx/5+G/EKgEQonPW66SF2OkWLedq8CCz1279qS618f0NCDOK3n3bcfN/ZxiO50F9CxiWkWaSbid1dKmNTDn9w0HQ1FYqZKiRMdGM817SHKQ8vGfzYnfCmRb9DD8kbSCJHogTsEHrJTVyqR1903igsPmASUfERWxQNkNeUDcMmimImG3EseGfLAKBWB7twowgghhT8SDoioJ+Ygl6AWDIYD+CTSs0SfBl8hAtOx1LjXrYCRZr8RtxlFgEBuYhVVuA9Laf9iFQEKvE8dPdfu/7FvyCeTipeQe+S3t8v/oIift6vIvoUjaDwBbPfRk3lKmUpFGVC6h8qonZKVbVRKTO/72z8ZmZgNnNvgIbGxsbGxsbGxsbGxsbGxsbGxsbGxsbGxsbGxsbGxsbGxsbGxsbGxsbGxsbGxsbGxsbGxsbGxsbGxsbGxsbGxsbGxsbGxsbGxub402t1DgIFSmjkSh81x+VLauH+JxUFMe7NcrPuRWV6bujeWwe3zy2eADyd9JvKAgejfaiHbhor7CY1Dvg4PVIVUl3o7xqtJ+1B60c/okWf225Cxab0YAM1rG2cDHpa9JYpVpl+c8R1Svv1+lzylDaVbTHuIlvIpsVAPFv2vMd6fpyJVX1A6RiP5Q3lCUXG5tFAPE95UV1/ToGAyKjudIEblHNlihAyoL8t5IQjVhL4Sc00QEQ32eFes1ipeESG1ucASlGV2LR2WuNn15FH5OjIf72GyWypQ2QLyt8ju+zPg+zzFqttI1gY4szIAKA19C/5HQ/iR4mYxC9Cva3PypRJm2AzK3wOb7PEkuowyGWWBuV7mNsbAkAZC2pIMDftUHru2B/K1pNt9MIyOQg31FCOFkjIGr7sZlooRxIoovR5Wjs+FKA/79QCZP5d0AV/+6R+mJd91qF168kjUPDeXeYC59C8iD2vTTEd/SX+LxCUk+lAU3g9xWdlx4I8R7z8MQbgMaW/r9hE2kR6TY8mVLC/AbR5OYqtHRbXeFzxE15gnQd+r6/FOI79VXeK/Bn5OH/z4nwGm1BQ9MxysCNtflO9IBcTPpHnADpGGK2CglIY6wPgzWN34v+fPuCODpF2LgRT4LO6IG3HhtHx4Ks9/7Ee84MunOqDqwHMc3ux1o2UqfsMDaE3iT1qDSwPNJZpFfCtEH+Ef8sCuDwFeF6iA2nW4I2vvRIdUnLcWMOBLh+4r2O4Fp8E2IJIOOhklPh/d245m/i9x7RcI2KcF2/w8OiGgOiHZCjGi66r4vqp4hARPI3YtDPqjSTqCkFom3zQR3i6V8gtcAdISC+voCRfsZ+PP2TK/yGHMyWxyL8nuGuWXlA1NlVgqNbFuN12o9mn1kMiDZAijU+uaORmKEaVPhOTcJEHbSG+FYrUEQ+gxRpfP8PSKdV+A19MMvodZ0qAnIqUiXKdHp/0Sj0WgZEGyDx0AElraD8d7ozhEMVDSBiCdMqQkCi0Y9Kr/Hyv2GBxiWPVkBEst37OgLypzJrMyBRAVKMm304TNza/ynse/3hMLNQkeL0lv9OT4V5ih+tMDAiWaJcqxEQ/98QbqCLJLjRFX7Djgh2bw/7XVOtS6zOGNSh7llJgDynUJ/xNAOiHZASOOAr0Zh+LRzwUF/yW9KLeL3QJyHW4mVKVKX8d1oV5vtsQFToIWgKnqZ6AVIKX2oVvv8qbHYFe/0h5TtEDoiAf6ff9dmAWahEAyC9w3z/j0mz/a7Rw6QVDIj+gOzGzRCN6c8gNcPuZLABfwQ3pi5efwby8EM5q29pAEQA1YGU79c3vBqWNHoB8gNpiN9vPh/h7KMhomazNAAiBnBrv+vjQRi7TCdAynAPavldI3G9ujgYkOtDBF9KMaYviAaQ10mN/F5fG/sAf4VYy95d4TM6hFlCaAFEDki6uoOqFyDvKXs/J16fgWjbwRCAFGpcYp3q99okvL+sEyCyMmtUvkbtHADIH1jBVNSeMGNQJEaeHA0gW8tFmVRAFoYARHzBuywOiDgjcFkFQGYaBoj6+pkMiC6ARBugGK48qBgQBoQBqeQPhkhUZEAYEGcDcggpOvkMCAPCgAQOaHyphM0ZEAbEoYCUIopaGmLPSCTlZjMgDIjdAdmMzHN/3YGk0VBh9JVKWJ8BYUBsDshUJbu6vNJJvZCUGWyjcEO57QwGhAHhnXR9dtIZEAaEAWFAGBAGhAFhQBgQBoQBYUAYEAaEAWFAbA3I3ziblwExCpDmlTIvrQVIKeLyHqglSv6U6QjIlEolicwHyKWkf8cJkE5Iebc9IOLU3T3Kd1IHVwHOZ68JM8DMBEgRTih+An2PpLlSHU8UrlZ+wwkIL1LuS+hrZBQg25Qz+ye+i0/Dw5zUjKay4lMBPqc+aqsdtAsgodICivAk2IoibltwvPSgyQDZpGNBhUCA9ApxRLcE9+EdfI9NWMr8FuY+GAGIyHP6VbnHJ76LT5+EOWb8dRS1eb8J8Dlb8d9DPXTFA/ZCqwAyW+eKIEeU6obxBaRQY30trYB0jKA2gBYVK9ddf0BiqWn2ljLzGX9gyneisLZVALkB60+90pnFDNM0zoBcjCenUYA0wn3Ta5baoyT1mQcQ8bvmlxu0xgEiloETXQFbsZkTkJNJ/9JYwC3UhX6k3IGY+ADixixSEuF3LNMISA6qlRzRCRLRi+NskwBSggdk/3KBBuMAeUcpoqHjeZBFruB1ZPUAJAkRjnD9I0INuFIM6OXK2tI/6hUdILPgSEcGiPp31RBQ+BbLoQP4PT4dRk2tj7De1gJIEn7Hc6jgWBrFNfI9PUWJo2tc0Rax1geQMj84vsd1q1rhc/TsUejzZz8DiO5gP64e6iV9H0TLyjkvHqkm6THc9ECv36WU+Sn/GVe41CLJwT7jpSDfTUQfFqO051dh3sNfn8EpnRiwUoXaM+LpEH+/Xgkln3h9Ot4r2G8WpZHGhxhANeAzjIN/5dM0RKNO1bxRWP5+jETU7IsQ37GixCm6D1G/rKErFvNI/SL8zFD6Ck67aHbT3RWoILg6a47U4bO+xkNpSbkHYZAfl4dwYLcgau3y7zaqDpZmIV7fsdJUrc46XUP8zeUhvp/bpbYZ6BTi7/3VFfH+k0K8Zxb2HoK9R1tX+XYOKcogCv56NYQZ2yCLDpDys9VVEV4j333yuMK1oIjsu9fV8LmhdJEyvkKPBY9On9XAFa51BZvBps4cdSLQmREUvgsNCBubBQG5B0uYcFqNZVopA8LmJEA2Rxhh8gUVQr12mBIsYGOzESBbdArBiuiXFLjyHxubswERO9wvu7hFMRsDErAX4ruIOFXhC8rmVB8k0E7yF5g5OjEcbHYFZBQ2o5Zq0AyX2nW2e+BCZmxs9gGkGnbJtSiVLxwbGxsbGxsbGxsbGxsbGxsbGxsbGxsbGxsbGxsbGxsbGxsbGxsbGxsbGxsbGxsbGxsbmzb7PxliDlX20aOpAAAAAElFTkSuQmCC;" vertex="1" parent="1">
          <mxGeometry x="620" y="240" width="66.91" height="90" as="geometry" />
        </mxCell>
      </root>
    </mxGraphModel>
  </diagram>
</mxfile>
